<svg xmlns="http://www.w3.org/2000/svg" width="24" height="25.043" viewBox="0 0 24 25.043"><defs><style>.a{fill:#fff;opacity:0.6;}</style></defs><path class="a" d="M7.217,0A1.051,1.051,0,0,0,6.174,1.043V2.087H3.043a1.116,1.116,0,0,0-.666.188A.958.958,0,0,0,2,3.022v21a1.037,1.037,0,0,0,.277.721,1.008,1.008,0,0,0,.724.3H25a1.008,1.008,0,0,0,.724-.3A1.037,1.037,0,0,0,26,24.022v-21a.958.958,0,0,0-.377-.748,1.116,1.116,0,0,0-.666-.188h-3.13V1.043A1.051,1.051,0,0,0,20.783,0H19.739A1.051,1.051,0,0,0,18.7,1.043V2.087H9.3V1.043A1.051,1.051,0,0,0,8.261,0Zm0,1.043H8.261v3.13H7.217Zm12.522,0h1.043v3.13H19.739ZM3.043,3.13h3.13V4.174A1.051,1.051,0,0,0,7.217,5.217H8.261A1.051,1.051,0,0,0,9.3,4.174V3.13H18.7V4.174a1.051,1.051,0,0,0,1.043,1.043h1.043a1.051,1.051,0,0,0,1.043-1.043V3.13h3.13V6.783H3.043Zm0,4.7H24.957V24H3.043Zm10.761,4.4a1.032,1.032,0,0,1-.238.507,1.486,1.486,0,0,1-.442.338,2.02,2.02,0,0,1-.577.188,3.859,3.859,0,0,1-.658.057v.846H13.5V18.8h1.174V12.222Z" transform="translate(-2)"/></svg>