<svg xmlns="http://www.w3.org/2000/svg" width="32" height="32" viewBox="0 0 32 32"><defs><style>.a{fill:#fff;opacity:0.6;}</style></defs><path class="a" d="M.52,0A.64.64,0,0,0,0,.64V8.32a.641.641,0,0,0,.64.64H8.32a.641.641,0,0,0,.64-.64V.64A.641.641,0,0,0,8.32,0H.52Zm.76,1.28h6.4v6.4H1.28Zm5.28.86L4.1,4.88,2.34,3.36l-.84.96L3.74,6.24l.48.42.42-.48,2.88-3.2ZM12.8,3.86V5.1H32V3.86ZM.52,11.52a.64.64,0,0,0-.52.64v7.68a.641.641,0,0,0,.64.64H8.32a.641.641,0,0,0,.64-.64V12.16a.641.641,0,0,0-.64-.64H.52Zm.76,1.28h6.4v6.4H1.28Zm5.28.86L4.1,16.4,2.34,14.88l-.84.96,2.24,1.92.48.42.42-.48,2.88-3.2Zm6.24,1.72v1.24H32V15.38ZM.52,23.04a.64.64,0,0,0-.52.64v7.68A.641.641,0,0,0,.64,32H8.32a.641.641,0,0,0,.64-.64V23.68a.641.641,0,0,0-.64-.64H.52Zm.76,1.28h6.4v6.4H1.28ZM12.8,26.9v1.24H32V26.9Z" transform="translate(0)"/></svg>