<svg xmlns="http://www.w3.org/2000/svg" width="32" height="26.24" viewBox="0 0 32 26.24"><defs><style>.a{fill:#fff;opacity:0.6;}</style></defs><path class="a" d="M3.84,2A3.851,3.851,0,0,0,0,5.84V24.4a3.851,3.851,0,0,0,3.84,3.84H32V5.2H7.55A3.8,3.8,0,0,0,3.84,2Zm0,1.28A2.552,2.552,0,0,1,6.4,5.84V21.55a3.8,3.8,0,0,0-5.12,0V5.84A2.552,2.552,0,0,1,3.84,3.28Zm3.84,3.2H30.72V26.96H3.84A2.56,2.56,0,1,1,6.4,24.4H7.68ZM22.4,10.32l1.788,1.788L20.8,15.495,17.31,12,11.74,16.88l.84.96,4.67-4.082,3.55,3.548,4.292-4.293L26.88,14.8V10.32ZM10.88,21.2v1.28h16V21.2Z" transform="translate(0 -2)"/></svg>