<svg xmlns="http://www.w3.org/2000/svg" width="12" height="12" viewBox="0 0 12 12"><defs><style>.a{fill:#fff;opacity:0.6;}</style></defs><path class="a" d="M8,2a6.008,6.008,0,1,0,5.037,2.745l-.233.233-.153.153h-.675l-.713.713a3.916,3.916,0,1,1-1.107-1.107l.713-.713V3.349l.153-.153.232-.232A5.958,5.958,0,0,0,8,2Zm4.7.261-1.3,1.3V4.24L7.816,7.816a.261.261,0,1,0,.369.369L11.76,4.609h.675l1.3-1.3H12.7ZM8,5.652a2.357,2.357,0,1,0,2.117,1.338L8.553,8.553A.783.783,0,1,1,7.447,7.447L9.01,5.883A2.32,2.32,0,0,0,8,5.652Z" transform="translate(-2 -2)"/></svg>