<svg xmlns="http://www.w3.org/2000/svg" width="24" height="19.68" viewBox="0 0 24 19.68"><defs><style>.a{fill:#fff;opacity:0.6;}</style></defs><path class="a" d="M2.88,2A2.888,2.888,0,0,0,0,4.88V18.8a2.888,2.888,0,0,0,2.88,2.88H24V4.4H5.663A2.85,2.85,0,0,0,2.88,2Zm0,.96A1.914,1.914,0,0,1,4.8,4.88V16.663a2.854,2.854,0,0,0-3.84,0V4.88A1.914,1.914,0,0,1,2.88,2.96Zm2.88,2.4H23.04V20.72H2.88A1.92,1.92,0,1,1,4.8,18.8h.96ZM16.8,8.24l1.341,1.341L15.6,12.121,12.983,9.5,8.805,13.16l.63.72,3.5-3.062L15.6,13.479l3.219-3.219L20.16,11.6V8.24ZM8.16,16.4v.96h12V16.4Z" transform="translate(0 -2)"/></svg>