<svg xmlns="http://www.w3.org/2000/svg" width="32" height="31.998" viewBox="0 0 32 31.998"><defs><style>.a{fill:#fff;opacity:0.87;}</style></defs><path class="a" d="M8.955,2a3.478,3.478,0,1,0,3.478,3.478A3.488,3.488,0,0,0,8.955,2ZM20.781,2V3.391H13.824V4.782H32.606V22.868H14.52v1.391h5.913l-3.826,7.652H18l3.478-6.956,3.478,6.956h1.391L22.52,24.259H33.3a.7.7,0,0,0,.7-.7V4.087a.7.7,0,0,0-.7-.7H22.172V2ZM8.955,3.391A2.087,2.087,0,1,1,6.868,5.478,2.077,2.077,0,0,1,8.955,3.391Zm-3.13,6.26A3.835,3.835,0,0,0,2,13.478v8.565a.464.464,0,0,0,0,.087v.043a.676.676,0,0,0,.022.2,2.093,2.093,0,0,0,2.065,1.891,2.052,2.052,0,0,0,.7-.13v7.434a2.429,2.429,0,0,0,4.174,1.7,2.429,2.429,0,0,0,4.174-1.7V13.825h7.652a2.087,2.087,0,0,0,.043-4.174H11.042a.691.691,0,0,0-.63.391L8.955,12.956,7.5,10.043a.691.691,0,0,0-.63-.391Zm0,1.391h.609l1.891,3.782a.7.7,0,0,0,1.261,0l1.891-3.782h9.369a.7.7,0,0,1-.065,1.391H12.433a.7.7,0,0,0-.7.7V31.563a1.046,1.046,0,0,1-2.087.109V24.259a.7.7,0,0,0-.761-.717.81.81,0,0,0-.087.022.7.7,0,0,0-.543.7v7.173a.465.465,0,0,0,0,.087v.152a1.046,1.046,0,0,1-2.087-.109V15.217a.7.7,0,1,0-1.391,0v6.956a.7.7,0,0,1-1.391.043v-.043a.524.524,0,0,0,0-.13V13.478A2.424,2.424,0,0,1,5.825,11.043Z" transform="translate(-1.997 -2)"/></svg>