<svg xmlns="http://www.w3.org/2000/svg" width="16" height="15.999" viewBox="0 0 16 15.999"><defs><style>.a{fill:#fff;opacity:0.6;}</style></defs><path class="a" d="M5.476,2A1.739,1.739,0,1,0,7.215,3.739,1.744,1.744,0,0,0,5.476,2Zm5.913,0v.7H7.911v.7H17.3v9.043H8.259v.7h2.956L9.3,16.956H10l1.739-3.478,1.739,3.478h.7L12.258,13.13h5.391A.348.348,0,0,0,18,12.782V3.043a.348.348,0,0,0-.348-.348H12.084V2Zm-5.913.7A1.043,1.043,0,1,1,4.433,3.739,1.038,1.038,0,0,1,5.476,2.7ZM3.911,5.826A1.918,1.918,0,0,0,2,7.739v4.282a.232.232,0,0,0,0,.043v.022a.338.338,0,0,0,.011.1,1.047,1.047,0,0,0,1.033.946,1.026,1.026,0,0,0,.348-.065v3.717a1.214,1.214,0,0,0,2.087.848,1.214,1.214,0,0,0,2.087-.848V7.913h3.826a1.044,1.044,0,0,0,.022-2.087H6.52a.345.345,0,0,0-.315.2L5.476,7.478,4.748,6.021a.346.346,0,0,0-.315-.2Zm0,.7h.3l.946,1.891a.348.348,0,0,0,.63,0l.946-1.891h4.685a.349.349,0,0,1-.033.7H7.215a.348.348,0,0,0-.348.348v9.217a.523.523,0,0,1-1.043.054V13.13a.348.348,0,0,0-.38-.359.405.405,0,0,0-.043.011.348.348,0,0,0-.272.348v3.587a.233.233,0,0,0,0,.043v.076a.523.523,0,0,1-1.043-.054V8.608a.348.348,0,1,0-.7,0v3.478a.348.348,0,0,1-.7.022v-.022a.262.262,0,0,0,0-.065V7.739A1.212,1.212,0,0,1,3.911,6.521Z" transform="translate(-1.997 -2)"/></svg>