<svg xmlns="http://www.w3.org/2000/svg" width="24" height="22.465" viewBox="0 0 24 22.465"><defs><style>.a{fill:#fff;opacity:0.6;}</style></defs><path class="a" d="M4.529,6A1.54,1.54,0,0,0,3,7.532V11.01a.385.385,0,0,0,0,.1V24.891a.512.512,0,0,0,.511.511H17.213a5.1,5.1,0,1,0,8.249-5.68V11.106a.385.385,0,0,0,0-.1V7.532A1.54,1.54,0,0,0,23.931,6Zm0,1.021h5.616V10.6H4.018V7.532A.5.5,0,0,1,4.529,7.021Zm6.637,0h6.127V10.6H11.166Zm7.148,0h5.616a.5.5,0,0,1,.511.511V10.6H18.314Zm-14.3,4.6h6.127V15.19H4.018Zm7.148,0h6.127V15.19H11.166Zm7.148,0h6.127V15.19H18.314Zm-14.3,4.6h6.127v3.574H4.018Zm7.148,0h6.127v3.574H11.166Zm7.148,0h6.127v2.744a5.048,5.048,0,0,0-6.127.766Zm3.574,3.063A4.085,4.085,0,1,1,17.8,23.36,4.1,4.1,0,0,1,21.888,19.275ZM21.378,20.3V23.1l-1.835,1.372.606.83,2.25-1.691V20.3Zm-17.36.511h6.127v3.574H4.018Zm7.148,0h6.318a4.916,4.916,0,0,0-.59,3.574H11.166Z" transform="translate(-2.994 -6)"/></svg>