<svg xmlns="http://www.w3.org/2000/svg" width="24" height="23.998" viewBox="0 0 24 23.998"><defs><style>.a{fill:#fff;opacity:0.6;}</style></defs><path class="a" d="M7.216,2A2.609,2.609,0,1,0,9.824,4.609,2.616,2.616,0,0,0,7.216,2Zm8.869,0V3.043H10.868V4.087H24.954V17.651H11.389v1.043h4.434l-2.869,5.739H14l2.609-5.217,2.609,5.217h1.043l-2.869-5.739h8.086A.523.523,0,0,0,26,18.173V3.565a.523.523,0,0,0-.522-.522H17.128V2ZM7.216,3.043A1.565,1.565,0,1,1,5.651,4.609,1.558,1.558,0,0,1,7.216,3.043Zm-2.348,4.7A2.876,2.876,0,0,0,2,10.608v6.424A.348.348,0,0,0,2,17.1v.033a.507.507,0,0,0,.016.147,1.57,1.57,0,0,0,1.549,1.418,1.539,1.539,0,0,0,.522-.1v5.576a1.822,1.822,0,0,0,3.13,1.272,1.822,1.822,0,0,0,3.13-1.272v-13.3h5.739a1.565,1.565,0,0,0,.033-3.13H8.781a.518.518,0,0,0-.473.293L7.216,10.217,6.123,8.032a.518.518,0,0,0-.473-.293Zm0,1.043h.456l1.418,2.837a.521.521,0,0,0,.946,0L9.107,8.782h7.027a.523.523,0,0,1-.049,1.043H9.824a.523.523,0,0,0-.522.522V24.173a.785.785,0,0,1-1.565.082V18.695a.522.522,0,0,0-.571-.538.608.608,0,0,0-.065.016.523.523,0,0,0-.408.522v5.38a.349.349,0,0,0,0,.065v.114a.785.785,0,0,1-1.565-.082V11.912a.522.522,0,1,0-1.043,0v5.217a.522.522,0,0,1-1.043.033v-.033a.393.393,0,0,0,0-.1V10.608A1.818,1.818,0,0,1,4.868,8.782Z" transform="translate(-1.997 -2)"/></svg>