<svg xmlns="http://www.w3.org/2000/svg" width="24" height="18.239" viewBox="0 0 24 18.239"><defs><style>.a{fill:#fff;opacity:0.6;}</style></defs><path class="a" d="M12.868,5a5.191,5.191,0,0,0-4.53,2.1,3.987,3.987,0,0,0-.4.81l-.12-.24a.479.479,0,0,0-.42-.27A4.069,4.069,0,0,0,3.839,9.08a3.569,3.569,0,0,0-.255,3.15c-.03.049-.094.075-.12.135a1.425,1.425,0,0,0-.1.75v.015a2.011,2.011,0,0,0,.345.99c.077.1.2.1.3.165a4.288,4.288,0,0,0,.315,1,3.268,3.268,0,0,0,.27.465c.032.047.086.079.12.12,0,.367-.013.7-.045,1.125a1.313,1.313,0,0,1-.69.615c-.4.206-.943.4-1.5.645a4.977,4.977,0,0,0-1.62,1.035A3.164,3.164,0,0,0,0,21.334a.481.481,0,0,0,.48.51H3.464a4.423,4.423,0,0,0-.15.885.481.481,0,0,0,.48.51H20.2a.481.481,0,0,0,.48-.51,4.43,4.43,0,0,0-.165-.93h3a.481.481,0,0,0,.48-.51,3.188,3.188,0,0,0-.855-2.04,4.878,4.878,0,0,0-1.59-1.035c-.551-.248-1.086-.439-1.485-.645a1.339,1.339,0,0,1-.675-.615c-.032-.388-.045-.733-.045-1.125.032-.041.088-.075.12-.12a3.083,3.083,0,0,0,.255-.465,3.67,3.67,0,0,0,.285-.96c.1-.062.212-.068.285-.165a2.011,2.011,0,0,0,.345-.99,1.5,1.5,0,0,0-.075-.72c-.023-.058-.105-.094-.135-.15a2.543,2.543,0,0,0,.255-.78,4.206,4.206,0,0,0-.12-1.44,2.846,2.846,0,0,0-.735-1.35,2.219,2.219,0,0,0-1.245-.555l-.2-.45a.481.481,0,0,0-.435-.285,6.863,6.863,0,0,0-2.025.27,3.275,3.275,0,0,0-.7-1.035,2.784,2.784,0,0,0-1.65-.7l-.27-.645A.482.482,0,0,0,12.868,5Zm-.315.99.255.555a.481.481,0,0,0,.435.285,1.788,1.788,0,0,1,1.32.495,2.623,2.623,0,0,1,.675,1.23,4.286,4.286,0,0,1,.12,1.47,2.066,2.066,0,0,1-.285.915.479.479,0,0,0,.18.735c-.008,0,0,0,.015.03a.94.94,0,0,1,.045.375c0,.015,0,.015,0,.03a1.764,1.764,0,0,1-.255.735.3.3,0,0,1-.075.075.479.479,0,0,0-.435.42,4.186,4.186,0,0,1-.345,1.185,2.729,2.729,0,0,1-.255.435c-.056.077-.113.12-.1.12a.478.478,0,0,0-.255.435c0,.624,0,1.125.045,1.86a.469.469,0,0,0,.03.135,2.72,2.72,0,0,0,1.47,1.395c.634.313,1.35.547,2.025.84a5.465,5.465,0,0,1,1.755,1.11,2.815,2.815,0,0,1,.69,1.425H4.394a2.814,2.814,0,0,1,.69-1.425,5.465,5.465,0,0,1,1.755-1.11c.675-.292,1.391-.527,2.025-.84a2.721,2.721,0,0,0,1.47-1.395.473.473,0,0,0,.03-.135c.049-.69.045-1.236.045-1.86a.478.478,0,0,0-.255-.435.085.085,0,0,0-.015-.015s-.009,0-.015,0a.745.745,0,0,1-.09-.105,2.884,2.884,0,0,1-.27-.435,3.645,3.645,0,0,1-.36-1.17.482.482,0,0,0-.39-.42c-.047-.009-.292,0-.375-.825-.034-.369.141-.478.12-.465a.478.478,0,0,0,.18-.6,3.833,3.833,0,0,1-.3-2.115.481.481,0,0,0,.105-.45,3.2,3.2,0,0,1,.39-.84A4.112,4.112,0,0,1,12.553,5.99Zm5.1,2.415.15.33a.479.479,0,0,0,.435.3,1.2,1.2,0,0,1,.915.345,1.95,1.95,0,0,1,.48.9,3.246,3.246,0,0,1,.09,1.095,1.692,1.692,0,0,1-.2.675.482.482,0,0,0,.135.7.58.58,0,0,1,.015.255,1.316,1.316,0,0,1-.15.54.479.479,0,0,0-.42.435,2.719,2.719,0,0,1-.255.855,2.237,2.237,0,0,1-.18.315,1.161,1.161,0,0,0-.075.1.48.48,0,0,0-.21.39,14.725,14.725,0,0,0,.045,1.485.535.535,0,0,0,.03.12,2.216,2.216,0,0,0,1.155,1.17c.489.253,1.041.433,1.545.66a4.077,4.077,0,0,1,1.29.84,2.057,2.057,0,0,1,.48.915h-2.82a3.726,3.726,0,0,0-.51-.66,6.223,6.223,0,0,0-2.055-1.3c-.724-.313-1.436-.555-1.98-.825a1.9,1.9,0,0,1-.975-.855c-.036-.576-.045-1.007-.045-1.515.051-.058.133-.1.18-.165a3.6,3.6,0,0,0,.345-.585,5.086,5.086,0,0,0,.36-1.29c.131-.079.289-.075.39-.21a2.61,2.61,0,0,0,.435-1.2.23.23,0,0,0,.015-.03,1.814,1.814,0,0,0-.12-.87c-.026-.062-.114-.077-.15-.135a3.105,3.105,0,0,0,.3-1.08,5.133,5.133,0,0,0-.075-1.53A6.523,6.523,0,0,1,17.653,8.4ZM7.124,8.42l.18.345a.478.478,0,0,0,.36.27,4.869,4.869,0,0,0,.3,2.115,1.476,1.476,0,0,0-.285,1.05A1.751,1.751,0,0,0,8.5,13.654a4.78,4.78,0,0,0,.4,1.3,3.674,3.674,0,0,0,.36.585c.047.062.129.1.18.15,0,.508-.009.964-.045,1.5a1.9,1.9,0,0,1-.975.855c-.544.27-1.256.512-1.98.825a6.223,6.223,0,0,0-2.055,1.3,3.693,3.693,0,0,0-.54.7H1.079a2.057,2.057,0,0,1,.48-.915,4.132,4.132,0,0,1,1.3-.84c.51-.227,1.052-.407,1.545-.66a2.2,2.2,0,0,0,1.17-1.155.47.47,0,0,0,.03-.135c.049-.594.06-.99.06-1.47a.48.48,0,0,0-.225-.42,1.032,1.032,0,0,1-.075-.09,2.36,2.36,0,0,1-.195-.33,3.3,3.3,0,0,1-.285-.915.479.479,0,0,0-.42-.4,1.317,1.317,0,0,1-.15-.54.463.463,0,0,1,.03-.255.48.48,0,0,0,.165-.6A2.659,2.659,0,0,1,4.649,9.6,3.011,3.011,0,0,1,7.124,8.42Z" transform="translate(0.002 -5)"/></svg>