<svg width="24" height="24" viewBox="0 0 24 24" fill="none" xmlns="http://www.w3.org/2000/svg">
<g id="Icon/Fill/arrrow-left">
<path id="Mask" fill-rule="evenodd" clip-rule="evenodd" d="M13.5439 18.001C13.0729 18.001 12.6089 17.844 12.2409 17.54L7.14191 13.326C6.73391 12.99 6.49991 12.506 6.49991 12C6.49991 11.494 6.73391 11.01 7.14091 10.674L12.2409 6.461C12.8489 5.957 13.7159 5.856 14.4499 6.201C15.0979 6.507 15.4999 7.114 15.4999 7.787V16.213C15.4999 16.886 15.0979 17.493 14.4499 17.799C14.1609 17.935 13.8509 18.001 13.5439 18.001Z" fill="#F0F0F0"/>
<mask id="mask0" mask-type="alpha" maskUnits="userSpaceOnUse" x="6" y="5" width="10" height="14">
<path id="Mask_2" fill-rule="evenodd" clip-rule="evenodd" d="M13.5439 18.001C13.0729 18.001 12.6089 17.844 12.2409 17.54L7.14191 13.326C6.73391 12.99 6.49991 12.506 6.49991 12C6.49991 11.494 6.73391 11.01 7.14091 10.674L12.2409 6.461C12.8489 5.957 13.7159 5.856 14.4499 6.201C15.0979 6.507 15.4999 7.114 15.4999 7.787V16.213C15.4999 16.886 15.0979 17.493 14.4499 17.799C14.1609 17.935 13.8509 18.001 13.5439 18.001Z" fill="white"/>
</mask>
<g mask="url(#mask0)">
<g id="&#240;&#159;&#142;&#168; Color">
<rect id="Base" width="24" height="24" fill="#F0F0F0"/>
</g>
</g>
</g>
</svg>
