<svg width="24" height="24" viewBox="0 0 24 24" fill="none" xmlns="http://www.w3.org/2000/svg">
<g id="Icon/Fill/batttery-charging">
<path id="Mask" fill-rule="evenodd" clip-rule="evenodd" d="M11.2769 13H6.99991C6.64391 13 6.31391 12.81 6.13491 12.502C5.95591 12.194 5.95491 11.813 6.13191 11.504L9.27691 6H4.16691C2.97191 6 1.99991 7.089 1.99991 8.429V15.571C1.99991 16.911 2.97191 18 4.16691 18H8.41991L11.2769 13ZM15.8335 6H11.5805L8.72351 11H13.0005C13.3565 11 13.6865 11.19 13.8645 11.498C14.0435 11.806 14.0445 12.187 13.8685 12.496L10.7235 18H15.8335C17.0285 18 18.0005 16.911 18.0005 15.571V8.429C18.0005 7.089 17.0285 6 15.8335 6ZM20 10C20 9.448 20.448 9 21 9C21.552 9 22 9.448 22 10V14C22 14.552 21.552 15 21 15C20.448 15 20 14.552 20 14V10Z" fill="#F0F0F0"/>
<mask id="mask0" mask-type="alpha" maskUnits="userSpaceOnUse" x="2" y="6" width="20" height="12">
<path id="Mask_2" fill-rule="evenodd" clip-rule="evenodd" d="M11.2769 13H6.99991C6.64391 13 6.31391 12.81 6.13491 12.502C5.95591 12.194 5.95491 11.813 6.13191 11.504L9.27691 6H4.16691C2.97191 6 1.99991 7.089 1.99991 8.429V15.571C1.99991 16.911 2.97191 18 4.16691 18H8.41991L11.2769 13ZM15.8335 6H11.5805L8.72351 11H13.0005C13.3565 11 13.6865 11.19 13.8645 11.498C14.0435 11.806 14.0445 12.187 13.8685 12.496L10.7235 18H15.8335C17.0285 18 18.0005 16.911 18.0005 15.571V8.429C18.0005 7.089 17.0285 6 15.8335 6ZM20 10C20 9.448 20.448 9 21 9C21.552 9 22 9.448 22 10V14C22 14.552 21.552 15 21 15C20.448 15 20 14.552 20 14V10Z" fill="white"/>
</mask>
<g mask="url(#mask0)">
<g id="&#240;&#159;&#142;&#168; Color">
<rect id="Base" width="24" height="24" fill="#F0F0F0"/>
</g>
</g>
</g>
</svg>
