<svg width="24" height="24" viewBox="0 0 24 24" fill="none" xmlns="http://www.w3.org/2000/svg">
<g id="Icon/Fill/bell-off">
<path id="Mask" fill-rule="evenodd" clip-rule="evenodd" d="M7.127 4.2988L8.593 5.7638L18.121 15.2928L20.114 17.2858L20.42 17.5908C20.609 17.4278 20.773 17.2328 20.873 16.9908C21.128 16.3778 20.989 15.6768 20.521 15.2078L18.72 13.4038V8.9368C18.72 5.4558 16.218 2.4988 12.899 2.0598C10.978 1.8038 9.038 2.3908 7.583 3.6668C7.389 3.8368 7.207 4.0178 7.035 4.2068L7.127 4.2988ZM14 18.3413C14 19.2403 13.084 20.0003 12 20.0003C10.916 20.0003 10 19.2403 10 18.3413V18.0003H14V18.3413ZM15.879 18.7073L15.293 18.1213L13.948 16.7773L13.879 16.7073L6.576 9.4043L5.312 8.1403C5.295 8.3353 5.28 8.5303 5.28 8.7273L5.279 13.4043L3.479 15.2083C3.01 15.6773 2.871 16.3773 3.125 16.9903C3.38 17.6033 3.973 18.0003 4.637 18.0003H8V18.3413C8 20.3593 9.794 22.0003 12 22.0003C14.042 22.0003 15.712 20.5893 15.951 18.7793L15.879 18.7073ZM19.407 17.993L20.707 19.293C21.098 19.684 21.098 20.316 20.707 20.707C20.512 20.902 20.256 21 20 21C19.744 21 19.488 20.902 19.293 20.707L16.586 18L16 17.414L14.655 16.069L14.586 16L7.283 8.697L5.531 6.946L3.293 4.707C2.902 4.316 2.902 3.684 3.293 3.293C3.684 2.902 4.316 2.902 4.707 3.293L6.42 5.006L7.886 6.471L17.414 16L19.407 17.993Z" fill="#F0F0F0"/>
<mask id="mask0" mask-type="alpha" maskUnits="userSpaceOnUse" x="2" y="2" width="20" height="21">
<path id="Mask_2" fill-rule="evenodd" clip-rule="evenodd" d="M7.127 4.2988L8.593 5.7638L18.121 15.2928L20.114 17.2858L20.42 17.5908C20.609 17.4278 20.773 17.2328 20.873 16.9908C21.128 16.3778 20.989 15.6768 20.521 15.2078L18.72 13.4038V8.9368C18.72 5.4558 16.218 2.4988 12.899 2.0598C10.978 1.8038 9.038 2.3908 7.583 3.6668C7.389 3.8368 7.207 4.0178 7.035 4.2068L7.127 4.2988ZM14 18.3413C14 19.2403 13.084 20.0003 12 20.0003C10.916 20.0003 10 19.2403 10 18.3413V18.0003H14V18.3413ZM15.879 18.7073L15.293 18.1213L13.948 16.7773L13.879 16.7073L6.576 9.4043L5.312 8.1403C5.295 8.3353 5.28 8.5303 5.28 8.7273L5.279 13.4043L3.479 15.2083C3.01 15.6773 2.871 16.3773 3.125 16.9903C3.38 17.6033 3.973 18.0003 4.637 18.0003H8V18.3413C8 20.3593 9.794 22.0003 12 22.0003C14.042 22.0003 15.712 20.5893 15.951 18.7793L15.879 18.7073ZM19.407 17.993L20.707 19.293C21.098 19.684 21.098 20.316 20.707 20.707C20.512 20.902 20.256 21 20 21C19.744 21 19.488 20.902 19.293 20.707L16.586 18L16 17.414L14.655 16.069L14.586 16L7.283 8.697L5.531 6.946L3.293 4.707C2.902 4.316 2.902 3.684 3.293 3.293C3.684 2.902 4.316 2.902 4.707 3.293L6.42 5.006L7.886 6.471L17.414 16L19.407 17.993Z" fill="white"/>
</mask>
<g mask="url(#mask0)">
<g id="&#240;&#159;&#142;&#168; Color">
<rect id="Base" width="24" height="24" fill="#F0F0F0"/>
</g>
</g>
</g>
</svg>
