<svg width="18" height="20" viewBox="0 0 18 20" fill="none" xmlns="http://www.w3.org/2000/svg">
<path fill-rule="evenodd" clip-rule="evenodd" d="M11 16.3413C11 17.2403 10.084 18.0003 8.99997 18.0003C7.91597 18.0003 6.99997 17.2403 6.99997 16.3413V16.0003H11V16.3413ZM17.521 13.2073L15.72 11.4043V6.9363C15.72 3.4553 13.218 0.499304 9.89897 0.0593044C7.97797 -0.195696 6.03797 0.390304 4.58297 1.6663C3.11897 2.9483 2.27997 4.7933 2.27997 6.7273L2.27897 11.4043L0.478969 13.2083C0.00996912 13.6773 -0.129031 14.3773 0.124969 14.9903C0.379969 15.6033 0.972969 16.0003 1.63697 16.0003H4.99997V16.3413C4.99997 18.3593 6.79397 20.0003 8.99997 20.0003C11.206 20.0003 13 18.3593 13 16.3413V16.0003H16.362C17.026 16.0003 17.619 15.6043 17.873 14.9903C18.128 14.3773 17.989 13.6773 17.521 13.2073Z" fill="#F0F0F0"/>
</svg>
