<svg width="24" height="24" viewBox="0 0 24 24" fill="none" xmlns="http://www.w3.org/2000/svg">
<g id="Icon/Fill/car">
<path id="Mask" fill-rule="evenodd" clip-rule="evenodd" d="M18.9794 17.9999C18.9794 18.5519 18.5314 18.9999 17.9794 18.9999C17.4274 18.9999 16.9794 18.5519 16.9794 17.9999C16.9794 17.4479 17.4274 16.9999 17.9794 16.9999C18.5314 16.9999 18.9794 17.4479 18.9794 17.9999ZM6.9794 17.9999C6.9794 18.5519 6.5314 18.9999 5.9794 18.9999C5.4274 18.9999 4.9794 18.5519 4.9794 17.9999C4.9794 17.4479 5.4274 16.9999 5.9794 16.9999C6.5314 16.9999 6.9794 17.4479 6.9794 17.9999ZM19.9794 12.4799V14.9999H16.9794V10.0809L19.9794 12.4799ZM21.6044 11.2189L16.9794 7.51889V4.99989C16.9794 3.89689 16.1664 2.99989 15.1664 2.99989H3.7914C2.7924 2.99989 1.9794 3.89689 1.9794 4.99989V14.9999C1.9794 15.8729 2.4924 16.6089 3.2004 16.8819C3.0604 17.2279 2.9794 17.6039 2.9794 17.9999C2.9794 19.6539 4.3254 20.9999 5.9794 20.9999C7.6334 20.9999 8.9794 19.6539 8.9794 17.9999C8.9794 17.6469 8.9074 17.3139 8.7944 16.9999H11.9794H15.1644C15.0514 17.3139 14.9794 17.6469 14.9794 17.9999C14.9794 19.6539 16.3254 20.9999 17.9794 20.9999C19.6334 20.9999 20.9794 19.6539 20.9794 17.9999C20.9794 17.6469 20.9074 17.3139 20.7944 16.9999H20.9794C21.5324 16.9999 21.9794 16.5529 21.9794 15.9999V11.9999C21.9794 11.6959 21.8414 11.4089 21.6044 11.2189Z" fill="#F0F0F0"/>
<mask id="mask0" mask-type="alpha" maskUnits="userSpaceOnUse" x="1" y="2" width="21" height="19">
<path id="Mask_2" fill-rule="evenodd" clip-rule="evenodd" d="M18.9794 17.9999C18.9794 18.5519 18.5314 18.9999 17.9794 18.9999C17.4274 18.9999 16.9794 18.5519 16.9794 17.9999C16.9794 17.4479 17.4274 16.9999 17.9794 16.9999C18.5314 16.9999 18.9794 17.4479 18.9794 17.9999ZM6.9794 17.9999C6.9794 18.5519 6.5314 18.9999 5.9794 18.9999C5.4274 18.9999 4.9794 18.5519 4.9794 17.9999C4.9794 17.4479 5.4274 16.9999 5.9794 16.9999C6.5314 16.9999 6.9794 17.4479 6.9794 17.9999ZM19.9794 12.4799V14.9999H16.9794V10.0809L19.9794 12.4799ZM21.6044 11.2189L16.9794 7.51889V4.99989C16.9794 3.89689 16.1664 2.99989 15.1664 2.99989H3.7914C2.7924 2.99989 1.9794 3.89689 1.9794 4.99989V14.9999C1.9794 15.8729 2.4924 16.6089 3.2004 16.8819C3.0604 17.2279 2.9794 17.6039 2.9794 17.9999C2.9794 19.6539 4.3254 20.9999 5.9794 20.9999C7.6334 20.9999 8.9794 19.6539 8.9794 17.9999C8.9794 17.6469 8.9074 17.3139 8.7944 16.9999H11.9794H15.1644C15.0514 17.3139 14.9794 17.6469 14.9794 17.9999C14.9794 19.6539 16.3254 20.9999 17.9794 20.9999C19.6334 20.9999 20.9794 19.6539 20.9794 17.9999C20.9794 17.6469 20.9074 17.3139 20.7944 16.9999H20.9794C21.5324 16.9999 21.9794 16.5529 21.9794 15.9999V11.9999C21.9794 11.6959 21.8414 11.4089 21.6044 11.2189Z" fill="white"/>
</mask>
<g mask="url(#mask0)">
<g id="&#240;&#159;&#142;&#168; Color">
<rect id="Base" width="24" height="24" fill="#F0F0F0"/>
</g>
</g>
</g>
</svg>
