<svg width="24" height="24" viewBox="0 0 24 24" fill="none" xmlns="http://www.w3.org/2000/svg">
<g id="Icon/Fill/checkmark">
<path id="Mask" fill-rule="evenodd" clip-rule="evenodd" d="M9.8633 18C9.5873 18 9.3233 17.886 9.1343 17.685L4.2713 12.506C3.8923 12.104 3.9133 11.471 4.3153 11.093C4.7183 10.715 5.3513 10.735 5.7283 11.137L9.8533 15.528L18.2613 6.32599C18.6353 5.91699 19.2673 5.88999 19.6753 6.26199C20.0823 6.63399 20.1103 7.26699 19.7383 7.67399L10.6013 17.674C10.4143 17.88 10.1483 17.998 9.8703 18H9.8633Z" fill="#F0F0F0"/>
<mask id="mask0" mask-type="alpha" maskUnits="userSpaceOnUse" x="4" y="6" width="16" height="12">
<path id="Mask_2" fill-rule="evenodd" clip-rule="evenodd" d="M9.8633 18C9.5873 18 9.3233 17.886 9.1343 17.685L4.2713 12.506C3.8923 12.104 3.9133 11.471 4.3153 11.093C4.7183 10.715 5.3513 10.735 5.7283 11.137L9.8533 15.528L18.2613 6.32599C18.6353 5.91699 19.2673 5.88999 19.6753 6.26199C20.0823 6.63399 20.1103 7.26699 19.7383 7.67399L10.6013 17.674C10.4143 17.88 10.1483 17.998 9.8703 18H9.8633Z" fill="white"/>
</mask>
<g mask="url(#mask0)">
<g id="&#240;&#159;&#142;&#168; Color">
<rect id="Base" width="24" height="24" fill="#F0F0F0"/>
</g>
</g>
</g>
</svg>
