<svg width="24" height="24" viewBox="0 0 24 24" fill="none" xmlns="http://www.w3.org/2000/svg">
<g id="Icon/Fill/checkmark-square Copy">
<path id="Mask" fill-rule="evenodd" clip-rule="evenodd" d="M16.2954 9.6055L11.7274 15.6055C11.5394 15.8525 11.2484 15.9985 10.9384 16.0005H10.9314C10.6244 16.0005 10.3344 15.8585 10.1444 15.6165L7.7124 12.5095C7.3724 12.0755 7.4484 11.4465 7.8834 11.1065C8.3184 10.7655 8.9464 10.8415 9.2874 11.2775L10.9204 13.3635L14.7044 8.3945C15.0384 7.9555 15.6664 7.8695 16.1064 8.2045C16.5454 8.5395 16.6304 9.1665 16.2954 9.6055ZM18.0004 3.0005H6.0004C4.3454 3.0005 3.0004 4.3455 3.0004 6.0005V18.0005C3.0004 19.6545 4.3454 21.0005 6.0004 21.0005H18.0004C19.6544 21.0005 21.0004 19.6545 21.0004 18.0005V6.0005C21.0004 4.3455 19.6544 3.0005 18.0004 3.0005Z" fill="#F0F0F0"/>
<mask id="mask0" mask-type="alpha" maskUnits="userSpaceOnUse" x="3" y="3" width="19" height="19">
<path id="Mask_2" fill-rule="evenodd" clip-rule="evenodd" d="M16.2954 9.6055L11.7274 15.6055C11.5394 15.8525 11.2484 15.9985 10.9384 16.0005H10.9314C10.6244 16.0005 10.3344 15.8585 10.1444 15.6165L7.7124 12.5095C7.3724 12.0755 7.4484 11.4465 7.8834 11.1065C8.3184 10.7655 8.9464 10.8415 9.2874 11.2775L10.9204 13.3635L14.7044 8.3945C15.0384 7.9555 15.6664 7.8695 16.1064 8.2045C16.5454 8.5395 16.6304 9.1665 16.2954 9.6055ZM18.0004 3.0005H6.0004C4.3454 3.0005 3.0004 4.3455 3.0004 6.0005V18.0005C3.0004 19.6545 4.3454 21.0005 6.0004 21.0005H18.0004C19.6544 21.0005 21.0004 19.6545 21.0004 18.0005V6.0005C21.0004 4.3455 19.6544 3.0005 18.0004 3.0005Z" fill="white"/>
</mask>
<g mask="url(#mask0)">
<g id="&#240;&#159;&#142;&#168; Color">
<rect id="Base" width="24" height="24" fill="#F0F0F0"/>
</g>
</g>
</g>
</svg>
