<svg width="24" height="24" viewBox="0 0 24 24" fill="none" xmlns="http://www.w3.org/2000/svg">
<g id="Icon/Fill/color-palette">
<path id="Mask" fill-rule="evenodd" clip-rule="evenodd" d="M16.75 7.79879C16.032 8.21279 15.115 7.96679 14.701 7.24979C14.287 6.53179 14.533 5.61479 15.25 5.20079C15.968 4.78679 16.885 5.03279 17.299 5.74979C17.713 6.46779 17.467 7.38479 16.75 7.79879ZM11 6.99979C10.172 6.99979 9.49999 6.32779 9.49999 5.49979C9.49999 4.67179 10.172 3.99979 11 3.99979C11.828 3.99979 12.5 4.67179 12.5 5.49979C12.5 6.32779 11.828 6.99979 11 6.99979ZM8.29899 9.24979C7.88499 9.96679 6.96799 10.2128 6.24999 9.79879C5.53299 9.38479 5.28699 8.46779 5.70099 7.74979C6.11499 7.03279 7.03199 6.78679 7.74999 7.20079C8.46699 7.61479 8.71299 8.53179 8.29899 9.24979ZM6.83899 14.7428C6.15199 15.2068 5.21999 15.0258 4.75699 14.3388C4.29299 13.6528 4.47499 12.7198 5.16099 12.2568C5.84799 11.7928 6.77999 11.9748 7.24299 12.6608C7.70699 13.3478 7.52499 14.2798 6.83899 14.7428ZM19.54 5.08479C17.617 3.10079 14.814 1.99279 11.906 1.99979H11.905C6.96099 2.04179 2.74099 5.75179 2.09199 10.6308C1.70999 13.4908 2.56199 16.3718 4.42999 18.5338C6.29799 20.6978 9.00699 21.9608 11.861 21.9998H11.898C13.099 21.9998 14.157 21.2128 14.426 20.1138C14.625 19.2918 14.418 18.4578 13.858 17.8258C13.777 17.7358 13.73 17.6158 13.73 17.5008C13.73 17.2258 13.955 17.0008 14.23 17.0008H15.881C19.073 17.0008 21.872 14.4028 21.993 11.3288C22.085 9.02879 21.214 6.81179 19.54 5.08479Z" fill="#F0F0F0"/>
<mask id="mask0" mask-type="alpha" maskUnits="userSpaceOnUse" x="2" y="1" width="20" height="21">
<path id="Mask_2" fill-rule="evenodd" clip-rule="evenodd" d="M16.75 7.79879C16.032 8.21279 15.115 7.96679 14.701 7.24979C14.287 6.53179 14.533 5.61479 15.25 5.20079C15.968 4.78679 16.885 5.03279 17.299 5.74979C17.713 6.46779 17.467 7.38479 16.75 7.79879ZM11 6.99979C10.172 6.99979 9.49999 6.32779 9.49999 5.49979C9.49999 4.67179 10.172 3.99979 11 3.99979C11.828 3.99979 12.5 4.67179 12.5 5.49979C12.5 6.32779 11.828 6.99979 11 6.99979ZM8.29899 9.24979C7.88499 9.96679 6.96799 10.2128 6.24999 9.79879C5.53299 9.38479 5.28699 8.46779 5.70099 7.74979C6.11499 7.03279 7.03199 6.78679 7.74999 7.20079C8.46699 7.61479 8.71299 8.53179 8.29899 9.24979ZM6.83899 14.7428C6.15199 15.2068 5.21999 15.0258 4.75699 14.3388C4.29299 13.6528 4.47499 12.7198 5.16099 12.2568C5.84799 11.7928 6.77999 11.9748 7.24299 12.6608C7.70699 13.3478 7.52499 14.2798 6.83899 14.7428ZM19.54 5.08479C17.617 3.10079 14.814 1.99279 11.906 1.99979H11.905C6.96099 2.04179 2.74099 5.75179 2.09199 10.6308C1.70999 13.4908 2.56199 16.3718 4.42999 18.5338C6.29799 20.6978 9.00699 21.9608 11.861 21.9998H11.898C13.099 21.9998 14.157 21.2128 14.426 20.1138C14.625 19.2918 14.418 18.4578 13.858 17.8258C13.777 17.7358 13.73 17.6158 13.73 17.5008C13.73 17.2258 13.955 17.0008 14.23 17.0008H15.881C19.073 17.0008 21.872 14.4028 21.993 11.3288C22.085 9.02879 21.214 6.81179 19.54 5.08479Z" fill="white"/>
</mask>
<g mask="url(#mask0)">
<g id="&#240;&#159;&#142;&#168; Color">
<rect id="Base" width="24" height="24" fill="#F0F0F0"/>
</g>
</g>
</g>
</svg>
