<svg width="24" height="24" viewBox="0 0 24 24" fill="none" xmlns="http://www.w3.org/2000/svg">
<g id="Icon/Fill/compass">
<path id="Mask" fill-rule="evenodd" clip-rule="evenodd" d="M10.7969 13.2129L12.4889 12.5289L13.2029 10.7869L11.5109 11.4709L10.7969 13.2129ZM15.9253 9.41991L14.1793 13.6779C14.0773 13.9279 13.8793 14.1249 13.6293 14.2269L9.4163 15.9279C9.2933 15.9769 9.1663 15.9999 9.0423 15.9999C8.7713 15.9999 8.5173 15.8829 8.3293 15.6899C8.3113 15.6729 8.2923 15.6589 8.2753 15.6419C8.2663 15.6309 8.2603 15.6179 8.2523 15.6069C8.0143 15.3309 7.9263 14.9409 8.0743 14.5799L9.8203 10.3219C9.9223 10.0719 10.1213 9.87491 10.3713 9.77391L14.5843 8.07191C14.9783 7.91591 15.4093 8.02791 15.6833 8.31791C15.9743 8.59391 16.0863 9.02591 15.9253 9.41991ZM12.0003 1.99991C6.4863 1.99991 2.0003 6.48591 2.0003 11.9999C2.0003 17.5139 6.4863 21.9999 12.0003 21.9999C17.5143 21.9999 22.0003 17.5139 22.0003 11.9999C22.0003 6.48591 17.5143 1.99991 12.0003 1.99991Z" fill="#F0F0F0"/>
<mask id="mask0" mask-type="alpha" maskUnits="userSpaceOnUse" x="2" y="2" width="21" height="20">
<path id="Mask_2" fill-rule="evenodd" clip-rule="evenodd" d="M10.7969 13.2129L12.4889 12.5289L13.2029 10.7869L11.5109 11.4709L10.7969 13.2129ZM15.9253 9.41991L14.1793 13.6779C14.0773 13.9279 13.8793 14.1249 13.6293 14.2269L9.4163 15.9279C9.2933 15.9769 9.1663 15.9999 9.0423 15.9999C8.7713 15.9999 8.5173 15.8829 8.3293 15.6899C8.3113 15.6729 8.2923 15.6589 8.2753 15.6419C8.2663 15.6309 8.2603 15.6179 8.2523 15.6069C8.0143 15.3309 7.9263 14.9409 8.0743 14.5799L9.8203 10.3219C9.9223 10.0719 10.1213 9.87491 10.3713 9.77391L14.5843 8.07191C14.9783 7.91591 15.4093 8.02791 15.6833 8.31791C15.9743 8.59391 16.0863 9.02591 15.9253 9.41991ZM12.0003 1.99991C6.4863 1.99991 2.0003 6.48591 2.0003 11.9999C2.0003 17.5139 6.4863 21.9999 12.0003 21.9999C17.5143 21.9999 22.0003 17.5139 22.0003 11.9999C22.0003 6.48591 17.5143 1.99991 12.0003 1.99991Z" fill="white"/>
</mask>
<g mask="url(#mask0)">
<g id="&#240;&#159;&#142;&#168; Color">
<rect id="Base" width="24" height="24" fill="#F0F0F0"/>
</g>
</g>
</g>
</svg>
