<svg width="24" height="24" viewBox="0 0 24 24" fill="none" xmlns="http://www.w3.org/2000/svg">
<g id="Icon/Fill/diagonal-arrow-right-down">
<path id="Mask" fill-rule="evenodd" clip-rule="evenodd" d="M17 8.00001C16.447 8.00001 16 8.44801 16 9.00001V14.586L7.707 6.29301C7.316 5.90201 6.684 5.90201 6.293 6.29301C5.902 6.68401 5.902 7.31601 6.293 7.70701L14.586 16H9C8.447 16 8 16.448 8 17C8 17.552 8.447 18 9 18H17C17.553 18 18 17.552 18 17V9.00001C18 8.44801 17.553 8.00001 17 8.00001Z" fill="#F0F0F0"/>
<mask id="mask0" mask-type="alpha" maskUnits="userSpaceOnUse" x="5" y="5" width="13" height="13">
<path id="Mask_2" fill-rule="evenodd" clip-rule="evenodd" d="M17 8.00001C16.447 8.00001 16 8.44801 16 9.00001V14.586L7.707 6.29301C7.316 5.90201 6.684 5.90201 6.293 6.29301C5.902 6.68401 5.902 7.31601 6.293 7.70701L14.586 16H9C8.447 16 8 16.448 8 17C8 17.552 8.447 18 9 18H17C17.553 18 18 17.552 18 17V9.00001C18 8.44801 17.553 8.00001 17 8.00001Z" fill="white"/>
</mask>
<g mask="url(#mask0)">
<g id="&#240;&#159;&#142;&#168; Color">
<rect id="Base" width="24" height="24" fill="#F0F0F0"/>
</g>
</g>
</g>
</svg>
