<svg width="24" height="24" viewBox="0 0 24 24" fill="none" xmlns="http://www.w3.org/2000/svg">
<g id="Icon/Fill/doctor">
<mask id="mask0" mask-type="alpha" maskUnits="userSpaceOnUse" x="2" y="3" width="20" height="18">
<path id="Mask" fill-rule="evenodd" clip-rule="evenodd" d="M14 15H13V16C13 16.552 12.553 17 12 17C11.447 17 11 16.552 11 16V15H10C9.447 15 9 14.552 9 14C9 13.448 9.447 13 10 13H11V12C11 11.448 11.447 11 12 11C12.553 11 13 11.448 13 12V13H14C14.553 13 15 13.448 15 14C15 14.552 14.553 15 14 15ZM10 5.5C10 5.224 10.225 5 10.5 5H13.5C13.775 5 14 5.224 14 5.5V7H10V5.5ZM19 7H16V5.5C16 4.122 14.879 3 13.5 3H10.5C9.121 3 8 4.122 8 5.5V7H5C3.346 7 2 8.346 2 10V18C2 19.654 3.346 21 5 21H19C20.654 21 22 19.654 22 18V10C22 8.346 20.654 7 19 7Z" fill="white"/>
</mask>
<g mask="url(#mask0)">
<g id="&#240;&#159;&#142;&#168; Color">
<rect id="Base" width="24" height="24" fill="#F0F0F0"/>
</g>
</g>
</g>
</svg>
