<svg width="24" height="24" viewBox="0 0 24 24" fill="none" xmlns="http://www.w3.org/2000/svg">
<g id="Icon/Fill/droplet">
<path id="Mask" fill-rule="evenodd" clip-rule="evenodd" d="M12.0998 20.4004C10.2481 20.3838 8.51459 19.6361 7.21674 18.2921C4.54997 15.5302 4.58597 11.0708 7.29705 8.34961L11.5746 4.05731C11.749 3.881 11.9872 3.78315 12.2355 3.785C12.4838 3.78777 12.7201 3.88931 12.8927 4.06746L17.101 8.42992C19.7678 11.1927 19.7318 15.653 17.0198 18.3715C15.7007 19.6942 13.9552 20.4152 12.1017 20.4004H12.0998Z" fill="#F0F0F0"/>
<mask id="mask0" mask-type="alpha" maskUnits="userSpaceOnUse" x="5" y="3" width="15" height="18">
<path id="Mask_2" fill-rule="evenodd" clip-rule="evenodd" d="M12.0998 20.4004C10.2481 20.3838 8.51459 19.6361 7.21674 18.2921C4.54997 15.5302 4.58597 11.0708 7.29705 8.34961L11.5746 4.05731C11.749 3.881 11.9872 3.78315 12.2355 3.785C12.4838 3.78777 12.7201 3.88931 12.8927 4.06746L17.101 8.42992C19.7678 11.1927 19.7318 15.653 17.0198 18.3715C15.7007 19.6942 13.9552 20.4152 12.1017 20.4004H12.0998Z" fill="white"/>
</mask>
<g mask="url(#mask0)">
<g id="&#240;&#159;&#142;&#168; Color">
<rect id="Base" width="24" height="24" fill="#F0F0F0"/>
</g>
</g>
</g>
</svg>
