<svg width="24" height="24" viewBox="0 0 24 24" fill="none" xmlns="http://www.w3.org/2000/svg">
<g id="Icon/Fill/gift">
<path id="Mask" fill-rule="evenodd" clip-rule="evenodd" d="M18.4434 21H12.8184V15.272H19.3634V20.091C19.3634 20.593 18.9514 21 18.4434 21ZM4.6367 20.0905V15.2725H11.1817V21.0005H5.5567C5.0487 21.0005 4.6367 20.5925 4.6367 20.0905ZM20.0996 7.09079H18.2576C18.4366 6.71779 18.5456 6.30479 18.5456 5.86279C18.5456 4.28479 17.2606 2.99979 15.6816 2.99979C13.8006 2.99979 12.6606 4.31979 11.9996 5.56879C11.3386 4.31979 10.1996 2.99979 8.3186 2.99979C6.7396 2.99979 5.4536 4.28479 5.4536 5.86279C5.4536 6.30479 5.5636 6.71779 5.7426 7.09079H3.9006C3.4036 7.09079 2.9996 7.67679 2.9996 8.40079V12.3268C2.9996 13.0498 3.4036 13.6368 3.9006 13.6368H4.6366H11.1816V7.09079H12.8186V13.6368H19.3636H20.0996C20.5966 13.6368 20.9996 13.0498 20.9996 12.3268V8.40079C20.9996 7.67679 20.5966 7.09079 20.0996 7.09079ZM15.6816 7.09079H13.1006C13.4866 6.07479 14.2806 4.63679 15.6816 4.63679C16.3586 4.63679 16.9096 5.18679 16.9096 5.86279C16.9096 6.53979 16.3586 7.09079 15.6816 7.09079ZM8.3186 7.09079C7.6416 7.09079 7.0906 6.53979 7.0906 5.86279C7.0906 5.18679 7.6416 4.63679 8.3186 4.63679C9.7196 4.63679 10.5136 6.07479 10.8996 7.09079H8.3186Z" fill="#F0F0F0"/>
<mask id="mask0" mask-type="alpha" maskUnits="userSpaceOnUse" x="2" y="2" width="19" height="20">
<path id="Mask_2" fill-rule="evenodd" clip-rule="evenodd" d="M18.4434 21H12.8184V15.272H19.3634V20.091C19.3634 20.593 18.9514 21 18.4434 21ZM4.6367 20.0905V15.2725H11.1817V21.0005H5.5567C5.0487 21.0005 4.6367 20.5925 4.6367 20.0905ZM20.0996 7.09079H18.2576C18.4366 6.71779 18.5456 6.30479 18.5456 5.86279C18.5456 4.28479 17.2606 2.99979 15.6816 2.99979C13.8006 2.99979 12.6606 4.31979 11.9996 5.56879C11.3386 4.31979 10.1996 2.99979 8.3186 2.99979C6.7396 2.99979 5.4536 4.28479 5.4536 5.86279C5.4536 6.30479 5.5636 6.71779 5.7426 7.09079H3.9006C3.4036 7.09079 2.9996 7.67679 2.9996 8.40079V12.3268C2.9996 13.0498 3.4036 13.6368 3.9006 13.6368H4.6366H11.1816V7.09079H12.8186V13.6368H19.3636H20.0996C20.5966 13.6368 20.9996 13.0498 20.9996 12.3268V8.40079C20.9996 7.67679 20.5966 7.09079 20.0996 7.09079ZM15.6816 7.09079H13.1006C13.4866 6.07479 14.2806 4.63679 15.6816 4.63679C16.3586 4.63679 16.9096 5.18679 16.9096 5.86279C16.9096 6.53979 16.3586 7.09079 15.6816 7.09079ZM8.3186 7.09079C7.6416 7.09079 7.0906 6.53979 7.0906 5.86279C7.0906 5.18679 7.6416 4.63679 8.3186 4.63679C9.7196 4.63679 10.5136 6.07479 10.8996 7.09079H8.3186Z" fill="white"/>
</mask>
<g mask="url(#mask0)">
<g id="&#240;&#159;&#142;&#168; Color">
<rect id="Base" width="24" height="24" fill="#F0F0F0"/>
</g>
</g>
</g>
</svg>
