<svg width="24" height="24" viewBox="0 0 24 24" fill="none" xmlns="http://www.w3.org/2000/svg">
<g id="Icon/Fill/hard-drive">
<path id="Mask" fill-rule="evenodd" clip-rule="evenodd" d="M5.6182 11L8.3422 5.553C8.5122 5.212 8.8552 5 9.2362 5H14.7642C15.1452 5 15.4882 5.212 15.6582 5.553L18.3822 11H5.6182ZM16.0002 17H12.0002C11.4502 17 11.0002 16.55 11.0002 16C11.0002 15.45 11.4502 15 12.0002 15H16.0002C16.5502 15 17.0002 15.45 17.0002 16C17.0002 16.55 16.5502 17 16.0002 17ZM8.0002 17C7.4502 17 7.0002 16.55 7.0002 16C7.0002 15.45 7.4502 15 8.0002 15C8.5502 15 9.0002 15.45 9.0002 16C9.0002 16.55 8.5502 17 8.0002 17ZM20.7892 11.342L17.4472 4.658C16.9352 3.636 15.9082 3 14.7642 3H9.2362C8.0922 3 7.0642 3.636 6.5532 4.658L3.2112 11.342C3.0732 11.618 3.0002 11.928 3.0002 12.236V18C3.0002 19.654 4.3462 21 6.0002 21H18.0002C19.6542 21 21.0002 19.654 21.0002 18V12.236C21.0002 11.928 20.9272 11.618 20.7892 11.342Z" fill="#F0F0F0"/>
<mask id="mask0" mask-type="alpha" maskUnits="userSpaceOnUse" x="3" y="3" width="19" height="18">
<path id="Mask_2" fill-rule="evenodd" clip-rule="evenodd" d="M5.6182 11L8.3422 5.553C8.5122 5.212 8.8552 5 9.2362 5H14.7642C15.1452 5 15.4882 5.212 15.6582 5.553L18.3822 11H5.6182ZM16.0002 17H12.0002C11.4502 17 11.0002 16.55 11.0002 16C11.0002 15.45 11.4502 15 12.0002 15H16.0002C16.5502 15 17.0002 15.45 17.0002 16C17.0002 16.55 16.5502 17 16.0002 17ZM8.0002 17C7.4502 17 7.0002 16.55 7.0002 16C7.0002 15.45 7.4502 15 8.0002 15C8.5502 15 9.0002 15.45 9.0002 16C9.0002 16.55 8.5502 17 8.0002 17ZM20.7892 11.342L17.4472 4.658C16.9352 3.636 15.9082 3 14.7642 3H9.2362C8.0922 3 7.0642 3.636 6.5532 4.658L3.2112 11.342C3.0732 11.618 3.0002 11.928 3.0002 12.236V18C3.0002 19.654 4.3462 21 6.0002 21H18.0002C19.6542 21 21.0002 19.654 21.0002 18V12.236C21.0002 11.928 20.9272 11.618 20.7892 11.342Z" fill="white"/>
</mask>
<g mask="url(#mask0)">
<g id="&#240;&#159;&#142;&#168; Color">
<rect id="Base" width="24" height="24" fill="#F0F0F0"/>
</g>
</g>
</g>
</svg>
