<svg width="24" height="24" viewBox="0 0 24 24" fill="none" xmlns="http://www.w3.org/2000/svg">
<g id="Icon/Fill/moon">
<path id="Mask" fill-rule="evenodd" clip-rule="evenodd" d="M12.2959 22C12.2639 22 12.2329 22 12.1999 21.999C9.4059 21.975 6.7979 20.854 4.8559 18.846C1.1789 15.041 1.0639 8.744 4.5989 4.809C5.6999 3.582 7.0439 2.659 8.5919 2.066C8.9569 1.924 9.3719 2.012 9.6509 2.288C9.9309 2.563 10.0239 2.976 9.8889 3.344C8.7709 6.399 9.5319 9.855 11.8299 12.148C14.1269 14.441 17.5929 15.202 20.6579 14.086C21.0259 13.95 21.4389 14.046 21.7129 14.324C21.9879 14.604 22.0739 15.019 21.9339 15.384C21.4099 16.747 20.6239 17.957 19.5979 18.98C17.6449 20.93 15.0539 22 12.2959 22Z" fill="#F0F0F0"/>
<mask id="mask0" mask-type="alpha" maskUnits="userSpaceOnUse" x="2" y="1" width="20" height="21">
<path id="Mask_2" fill-rule="evenodd" clip-rule="evenodd" d="M12.2959 22C12.2639 22 12.2329 22 12.1999 21.999C9.4059 21.975 6.7979 20.854 4.8559 18.846C1.1789 15.041 1.0639 8.744 4.5989 4.809C5.6999 3.582 7.0439 2.659 8.5919 2.066C8.9569 1.924 9.3719 2.012 9.6509 2.288C9.9309 2.563 10.0239 2.976 9.8889 3.344C8.7709 6.399 9.5319 9.855 11.8299 12.148C14.1269 14.441 17.5929 15.202 20.6579 14.086C21.0259 13.95 21.4389 14.046 21.7129 14.324C21.9879 14.604 22.0739 15.019 21.9339 15.384C21.4099 16.747 20.6239 17.957 19.5979 18.98C17.6449 20.93 15.0539 22 12.2959 22Z" fill="white"/>
</mask>
<g mask="url(#mask0)">
<g id="&#240;&#159;&#142;&#168; Color">
<rect id="Base" width="24" height="24" fill="#F0F0F0"/>
</g>
</g>
</g>
</svg>
