<svg width="24" height="24" viewBox="0 0 24 24" fill="none" xmlns="http://www.w3.org/2000/svg">
<g id="Icon/Fill/navigation-2">
<path id="Mask" fill-rule="evenodd" clip-rule="evenodd" d="M13.667 22C13.646 22 13.626 21.999 13.606 21.998C13.154 21.971 12.777 21.643 12.687 21.199L11.149 13.632C11.069 13.238 10.762 12.931 10.368 12.851L2.801 11.312C2.357 11.223 2.029 10.846 2.002 10.394C1.975 9.941 2.254 9.527 2.684 9.385L18.684 4.052C19.043 3.93 19.439 4.024 19.707 4.293C19.975 4.561 20.068 4.957 19.949 5.316L14.615 21.316C14.479 21.727 14.095 22 13.667 22Z" fill="#F0F0F0"/>
<mask id="mask0" mask-type="alpha" maskUnits="userSpaceOnUse" x="2" y="3" width="18" height="19">
<path id="Mask_2" fill-rule="evenodd" clip-rule="evenodd" d="M13.667 22C13.646 22 13.626 21.999 13.606 21.998C13.154 21.971 12.777 21.643 12.687 21.199L11.149 13.632C11.069 13.238 10.762 12.931 10.368 12.851L2.801 11.312C2.357 11.223 2.029 10.846 2.002 10.394C1.975 9.941 2.254 9.527 2.684 9.385L18.684 4.052C19.043 3.93 19.439 4.024 19.707 4.293C19.975 4.561 20.068 4.957 19.949 5.316L14.615 21.316C14.479 21.727 14.095 22 13.667 22Z" fill="white"/>
</mask>
<g mask="url(#mask0)">
<g id="&#240;&#159;&#142;&#168; Color">
<rect id="Base" width="24" height="24" fill="#F0F0F0"/>
</g>
</g>
</g>
</svg>
