<svg width="24" height="24" viewBox="0 0 24 24" fill="none" xmlns="http://www.w3.org/2000/svg">
<g id="Icon/Fill/options-2">
<path id="Mask" fill-rule="evenodd" clip-rule="evenodd" d="M3 7.0001H4.185C4.599 8.1611 5.698 9.0001 7 9.0001C8.302 9.0001 9.401 8.1611 9.815 7.0001H21C21.553 7.0001 22 6.5531 22 6.0001C22 5.4471 21.553 5.0001 21 5.0001H9.815C9.401 3.8391 8.302 3.0001 7 3.0001C5.698 3.0001 4.599 3.8391 4.185 5.0001H3C2.447 5.0001 2 5.4471 2 6.0001C2 6.5531 2.447 7.0001 3 7.0001ZM19 9.0001C17.698 9.0001 16.599 9.8391 16.185 11.0001H3C2.447 11.0001 2 11.4471 2 12.0001C2 12.5531 2.447 13.0001 3 13.0001H16.185C16.599 14.1611 17.698 15.0001 19 15.0001C20.654 15.0001 22 13.6541 22 12.0001C22 10.3461 20.654 9.0001 19 9.0001ZM13.815 17.0001H21C21.553 17.0001 22 17.4471 22 18.0001C22 18.5531 21.553 19.0001 21 19.0001H13.815C13.401 20.1611 12.302 21.0001 11 21.0001C9.698 21.0001 8.599 20.1611 8.185 19.0001H3C2.447 19.0001 2 18.5531 2 18.0001C2 17.4471 2.447 17.0001 3 17.0001H8.185C8.599 15.8391 9.698 15.0001 11 15.0001C12.302 15.0001 13.401 15.8391 13.815 17.0001Z" fill="#F0F0F0"/>
<mask id="mask0" mask-type="alpha" maskUnits="userSpaceOnUse" x="2" y="3" width="20" height="18">
<path id="Mask_2" fill-rule="evenodd" clip-rule="evenodd" d="M3 7.0001H4.185C4.599 8.1611 5.698 9.0001 7 9.0001C8.302 9.0001 9.401 8.1611 9.815 7.0001H21C21.553 7.0001 22 6.5531 22 6.0001C22 5.4471 21.553 5.0001 21 5.0001H9.815C9.401 3.8391 8.302 3.0001 7 3.0001C5.698 3.0001 4.599 3.8391 4.185 5.0001H3C2.447 5.0001 2 5.4471 2 6.0001C2 6.5531 2.447 7.0001 3 7.0001ZM19 9.0001C17.698 9.0001 16.599 9.8391 16.185 11.0001H3C2.447 11.0001 2 11.4471 2 12.0001C2 12.5531 2.447 13.0001 3 13.0001H16.185C16.599 14.1611 17.698 15.0001 19 15.0001C20.654 15.0001 22 13.6541 22 12.0001C22 10.3461 20.654 9.0001 19 9.0001ZM13.815 17.0001H21C21.553 17.0001 22 17.4471 22 18.0001C22 18.5531 21.553 19.0001 21 19.0001H13.815C13.401 20.1611 12.302 21.0001 11 21.0001C9.698 21.0001 8.599 20.1611 8.185 19.0001H3C2.447 19.0001 2 18.5531 2 18.0001C2 17.4471 2.447 17.0001 3 17.0001H8.185C8.599 15.8391 9.698 15.0001 11 15.0001C12.302 15.0001 13.401 15.8391 13.815 17.0001Z" fill="white"/>
</mask>
<g mask="url(#mask0)">
<g id="&#240;&#159;&#142;&#168; Color">
<rect id="Base" width="24" height="24" fill="#F0F0F0"/>
</g>
</g>
</g>
</svg>
