<svg width="24" height="24" viewBox="0 0 24 24" fill="none" xmlns="http://www.w3.org/2000/svg">
<g id="Icon/Fill/phone-off">
<path id="Mask" fill-rule="evenodd" clip-rule="evenodd" d="M9.2734 12.0547C8.9714 11.6087 8.7014 11.1387 8.4744 10.6447C9.7134 9.9947 9.7174 9.9917 9.8544 9.8497C10.0874 9.6067 10.1824 9.2617 10.1074 8.9337L8.7384 2.9697C8.6614 2.6337 8.4174 2.3617 8.0914 2.2487C7.8544 2.1657 7.6084 2.1047 7.3654 2.0657C7.1164 2.0227 6.8604 1.9997 6.5994 1.9997C4.0634 1.9997 2.0004 4.0637 2.0004 6.5997C2.0004 10.1657 3.2294 13.4437 5.2714 16.0567L9.2734 12.0547ZM21.9355 16.6387C21.8955 16.3887 21.8325 16.1437 21.7505 15.9087C21.6385 15.5827 21.3665 15.3387 21.0305 15.2617L15.0665 13.8927C14.7375 13.8197 14.3935 13.9117 14.1505 14.1457L14.1499 14.1463C14.0075 14.2827 14.0036 14.2865 13.3545 15.5277C12.8605 15.3027 12.3895 15.0327 11.9425 14.7287L7.9435 18.7287C10.5565 20.7707 13.8335 21.9997 17.4005 21.9997C19.9365 21.9997 21.9995 19.9367 21.9995 17.4007C21.9995 17.1417 21.9775 16.8867 21.9355 16.6387ZM18.4823 4.2607C18.8303 3.9127 19.3923 3.9127 19.7393 4.2607C20.0873 4.6077 20.0873 5.1697 19.7393 5.5177L5.5173 19.7397C5.1703 20.0867 4.6073 20.0867 4.2603 19.7397C4.0873 19.5667 4.0003 19.3387 4.0003 19.1117C4.0003 18.8837 4.0873 18.6567 4.2603 18.4827L18.4823 4.2607Z" fill="#F0F0F0"/>
<mask id="mask0" mask-type="alpha" maskUnits="userSpaceOnUse" x="2" y="1" width="20" height="21">
<path id="Mask_2" fill-rule="evenodd" clip-rule="evenodd" d="M9.2734 12.0547C8.9714 11.6087 8.7014 11.1387 8.4744 10.6447C9.7134 9.9947 9.7174 9.9917 9.8544 9.8497C10.0874 9.6067 10.1824 9.2617 10.1074 8.9337L8.7384 2.9697C8.6614 2.6337 8.4174 2.3617 8.0914 2.2487C7.8544 2.1657 7.6084 2.1047 7.3654 2.0657C7.1164 2.0227 6.8604 1.9997 6.5994 1.9997C4.0634 1.9997 2.0004 4.0637 2.0004 6.5997C2.0004 10.1657 3.2294 13.4437 5.2714 16.0567L9.2734 12.0547ZM21.9355 16.6387C21.8955 16.3887 21.8325 16.1437 21.7505 15.9087C21.6385 15.5827 21.3665 15.3387 21.0305 15.2617L15.0665 13.8927C14.7375 13.8197 14.3935 13.9117 14.1505 14.1457L14.1499 14.1463C14.0075 14.2827 14.0036 14.2865 13.3545 15.5277C12.8605 15.3027 12.3895 15.0327 11.9425 14.7287L7.9435 18.7287C10.5565 20.7707 13.8335 21.9997 17.4005 21.9997C19.9365 21.9997 21.9995 19.9367 21.9995 17.4007C21.9995 17.1417 21.9775 16.8867 21.9355 16.6387ZM18.4823 4.2607C18.8303 3.9127 19.3923 3.9127 19.7393 4.2607C20.0873 4.6077 20.0873 5.1697 19.7393 5.5177L5.5173 19.7397C5.1703 20.0867 4.6073 20.0867 4.2603 19.7397C4.0873 19.5667 4.0003 19.3387 4.0003 19.1117C4.0003 18.8837 4.0873 18.6567 4.2603 18.4827L18.4823 4.2607Z" fill="white"/>
</mask>
<g mask="url(#mask0)">
<g id="&#240;&#159;&#142;&#168; Color">
<rect id="Base" width="24" height="24" fill="#F0F0F0"/>
</g>
</g>
</g>
</svg>
