<svg width="24" height="24" viewBox="0 0 24 24" fill="none" xmlns="http://www.w3.org/2000/svg">
<g id="Icon/Fill/repeat">
<path id="Mask" fill-rule="evenodd" clip-rule="evenodd" d="M5.9142 5.00001H17.9102C19.8892 5.00001 21.5002 6.58301 21.5002 8.52901V11C21.5002 11.553 21.0532 12 20.5002 12C19.9472 12 19.5002 11.553 19.5002 11V8.52901C19.5002 7.68701 18.7872 7.00001 17.9102 7.00001H5.9142L7.2072 8.29301C7.5972 8.68401 7.5972 9.31601 7.2072 9.70701C7.0122 9.90201 6.7562 10 6.5002 10C6.2442 10 5.9882 9.90201 5.7932 9.70701L2.7932 6.70701C2.4022 6.31601 2.4022 5.68401 2.7932 5.29301L5.7932 2.29301C6.1832 1.90201 6.8162 1.90201 7.2072 2.29301C7.5972 2.68401 7.5972 3.31601 7.2072 3.70701L5.9142 5.00001ZM16.793 14.293C17.184 13.902 17.816 13.902 18.207 14.293L21.207 17.293C21.598 17.684 21.598 18.316 21.207 18.707L18.207 21.707C18.012 21.902 17.756 22 17.5 22C17.244 22 16.988 21.902 16.793 21.707C16.402 21.316 16.402 20.684 16.793 20.293L18.086 19H6.09C4.11 19 2.5 17.417 2.5 15.471V13C2.5 12.447 2.948 12 3.5 12C4.052 12 4.5 12.447 4.5 13V15.471C4.5 16.314 5.213 17 6.09 17H18.086L16.793 15.707C16.402 15.316 16.402 14.684 16.793 14.293Z" fill="#F0F0F0"/>
<mask id="mask0" mask-type="alpha" maskUnits="userSpaceOnUse" x="2" y="1" width="20" height="21">
<path id="Mask_2" fill-rule="evenodd" clip-rule="evenodd" d="M5.9142 5.00001H17.9102C19.8892 5.00001 21.5002 6.58301 21.5002 8.52901V11C21.5002 11.553 21.0532 12 20.5002 12C19.9472 12 19.5002 11.553 19.5002 11V8.52901C19.5002 7.68701 18.7872 7.00001 17.9102 7.00001H5.9142L7.2072 8.29301C7.5972 8.68401 7.5972 9.31601 7.2072 9.70701C7.0122 9.90201 6.7562 10 6.5002 10C6.2442 10 5.9882 9.90201 5.7932 9.70701L2.7932 6.70701C2.4022 6.31601 2.4022 5.68401 2.7932 5.29301L5.7932 2.29301C6.1832 1.90201 6.8162 1.90201 7.2072 2.29301C7.5972 2.68401 7.5972 3.31601 7.2072 3.70701L5.9142 5.00001ZM16.793 14.293C17.184 13.902 17.816 13.902 18.207 14.293L21.207 17.293C21.598 17.684 21.598 18.316 21.207 18.707L18.207 21.707C18.012 21.902 17.756 22 17.5 22C17.244 22 16.988 21.902 16.793 21.707C16.402 21.316 16.402 20.684 16.793 20.293L18.086 19H6.09C4.11 19 2.5 17.417 2.5 15.471V13C2.5 12.447 2.948 12 3.5 12C4.052 12 4.5 12.447 4.5 13V15.471C4.5 16.314 5.213 17 6.09 17H18.086L16.793 15.707C16.402 15.316 16.402 14.684 16.793 14.293Z" fill="white"/>
</mask>
<g mask="url(#mask0)">
<g id="&#240;&#159;&#142;&#168; Color">
<rect id="Base" width="24" height="24" fill="#F0F0F0"/>
</g>
</g>
</g>
</svg>
