<svg width="24" height="24" viewBox="0 0 24 24" fill="none" xmlns="http://www.w3.org/2000/svg">
<g id="Icon/Fill/rewind-right">
<path id="Mask" fill-rule="evenodd" clip-rule="evenodd" d="M20.8584 10.6738L15.7594 6.45979C15.1504 5.95779 14.2824 5.85679 13.5494 6.20079C12.9024 6.50679 12.5004 7.11379 12.5004 7.78679V10.3778L7.7594 6.45979C7.1504 5.95779 6.2814 5.85679 5.5494 6.20079C4.9024 6.50679 4.5004 7.11379 4.5004 7.78679V16.2128C4.5004 16.8858 4.9024 17.4928 5.5494 17.7988C5.8384 17.9348 6.1494 18.0008 6.4554 18.0008C6.9264 18.0008 7.3904 17.8438 7.7594 17.5388L12.5004 13.6228V16.2128C12.5004 16.8858 12.9024 17.4928 13.5494 17.7988C13.8384 17.9348 14.1494 18.0008 14.4554 18.0008C14.9264 18.0008 15.3904 17.8438 15.7594 17.5388L20.8584 13.3258C21.2664 12.9898 21.5004 12.5058 21.5004 11.9998C21.5004 11.4938 21.2664 11.0098 20.8584 10.6738Z" fill="#F0F0F0"/>
<mask id="mask0" mask-type="alpha" maskUnits="userSpaceOnUse" x="4" y="5" width="18" height="14">
<path id="Mask_2" fill-rule="evenodd" clip-rule="evenodd" d="M20.8584 10.6738L15.7594 6.45979C15.1504 5.95779 14.2824 5.85679 13.5494 6.20079C12.9024 6.50679 12.5004 7.11379 12.5004 7.78679V10.3778L7.7594 6.45979C7.1504 5.95779 6.2814 5.85679 5.5494 6.20079C4.9024 6.50679 4.5004 7.11379 4.5004 7.78679V16.2128C4.5004 16.8858 4.9024 17.4928 5.5494 17.7988C5.8384 17.9348 6.1494 18.0008 6.4554 18.0008C6.9264 18.0008 7.3904 17.8438 7.7594 17.5388L12.5004 13.6228V16.2128C12.5004 16.8858 12.9024 17.4928 13.5494 17.7988C13.8384 17.9348 14.1494 18.0008 14.4554 18.0008C14.9264 18.0008 15.3904 17.8438 15.7594 17.5388L20.8584 13.3258C21.2664 12.9898 21.5004 12.5058 21.5004 11.9998C21.5004 11.4938 21.2664 11.0098 20.8584 10.6738Z" fill="white"/>
</mask>
<g mask="url(#mask0)">
<g id="&#240;&#159;&#142;&#168; Color">
<rect id="Base" width="24" height="24" fill="#F0F0F0"/>
</g>
</g>
</g>
</svg>
