<svg width="24" height="24" viewBox="0 0 24 24" fill="none" xmlns="http://www.w3.org/2000/svg">
<g id="Icon/Fill/shield-off">
<path id="Mask" fill-rule="evenodd" clip-rule="evenodd" d="M18.8389 16.0112C20.2259 13.6972 20.9999 11.0172 20.9999 8.2302V8.0852C20.9999 7.3652 20.6099 6.6982 19.9809 6.3422L12.9799 2.4042C12.3759 2.0642 11.6249 2.0652 11.0199 2.4052L7.3159 4.4882L18.8389 16.0112ZM3.7314 6.56C3.2804 6.936 3.0004 7.487 3.0004 8.085V8.23C3.0004 13.692 5.9574 18.748 10.7174 21.426L11.0204 21.597C11.3224 21.767 11.6614 21.851 12.0004 21.851C12.3384 21.851 12.6774 21.766 12.9804 21.596L13.2824 21.426C14.4044 20.795 15.4214 20.028 16.3294 19.158L3.7314 6.56ZM3.293 3.2934C3.684 2.9024 4.316 2.9024 4.707 3.2934L20.707 19.2934C21.098 19.6844 21.098 20.3164 20.707 20.7074C20.512 20.9024 20.256 21.0004 20 21.0004C19.744 21.0004 19.488 20.9024 19.293 20.7074L3.293 4.7074C2.902 4.3164 2.902 3.6844 3.293 3.2934Z" fill="#F0F0F0"/>
<mask id="mask0" mask-type="alpha" maskUnits="userSpaceOnUse" x="2" y="2" width="20" height="20">
<path id="Mask_2" fill-rule="evenodd" clip-rule="evenodd" d="M18.8389 16.0112C20.2259 13.6972 20.9999 11.0172 20.9999 8.2302V8.0852C20.9999 7.3652 20.6099 6.6982 19.9809 6.3422L12.9799 2.4042C12.3759 2.0642 11.6249 2.0652 11.0199 2.4052L7.3159 4.4882L18.8389 16.0112ZM3.7314 6.56C3.2804 6.936 3.0004 7.487 3.0004 8.085V8.23C3.0004 13.692 5.9574 18.748 10.7174 21.426L11.0204 21.597C11.3224 21.767 11.6614 21.851 12.0004 21.851C12.3384 21.851 12.6774 21.766 12.9804 21.596L13.2824 21.426C14.4044 20.795 15.4214 20.028 16.3294 19.158L3.7314 6.56ZM3.293 3.2934C3.684 2.9024 4.316 2.9024 4.707 3.2934L20.707 19.2934C21.098 19.6844 21.098 20.3164 20.707 20.7074C20.512 20.9024 20.256 21.0004 20 21.0004C19.744 21.0004 19.488 20.9024 19.293 20.7074L3.293 4.7074C2.902 4.3164 2.902 3.6844 3.293 3.2934Z" fill="white"/>
</mask>
<g mask="url(#mask0)">
<g id="&#240;&#159;&#142;&#168; Color">
<rect id="Base" width="24" height="24" fill="#F0F0F0"/>
</g>
</g>
</g>
</svg>
