<svg width="24" height="24" viewBox="0 0 24 24" fill="none" xmlns="http://www.w3.org/2000/svg">
<g id="Icon/Fill/shield">
<path id="Mask" fill-rule="evenodd" clip-rule="evenodd" d="M12 21.851C11.661 21.851 11.322 21.767 11.021 21.597L10.718 21.426C5.957 18.748 3 13.692 3 8.23V8.085C3 7.366 3.39 6.698 4.018 6.343L11.02 2.405C11.625 2.065 12.376 2.064 12.979 2.404L19.98 6.342C20.61 6.698 21 7.366 21 8.085V8.23C21 13.692 18.043 18.748 13.282 21.426L12.98 21.596C12.678 21.766 12.339 21.851 12 21.851Z" fill="#F0F0F0"/>
<mask id="mask0" mask-type="alpha" maskUnits="userSpaceOnUse" x="3" y="2" width="18" height="20">
<path id="Mask_2" fill-rule="evenodd" clip-rule="evenodd" d="M12 21.851C11.661 21.851 11.322 21.767 11.021 21.597L10.718 21.426C5.957 18.748 3 13.692 3 8.23V8.085C3 7.366 3.39 6.698 4.018 6.343L11.02 2.405C11.625 2.065 12.376 2.064 12.979 2.404L19.98 6.342C20.61 6.698 21 7.366 21 8.085V8.23C21 13.692 18.043 18.748 13.282 21.426L12.98 21.596C12.678 21.766 12.339 21.851 12 21.851Z" fill="white"/>
</mask>
<g mask="url(#mask0)">
<g id="&#240;&#159;&#142;&#168; Color">
<rect id="Base" width="24" height="24" fill="#F0F0F0"/>
</g>
</g>
</g>
</svg>
