<svg width="24" height="24" viewBox="0 0 24 24" fill="none" xmlns="http://www.w3.org/2000/svg">
<g id="Icon/Fill/toggle-left">
<path id="Mask" fill-rule="evenodd" clip-rule="evenodd" d="M9.0029 11.0059C8.4509 11.0059 8.0049 11.4539 8.0059 12.0059C8.0059 12.5569 8.4539 13.0039 9.0059 13.0029C9.5569 13.0019 10.0039 12.5539 10.0029 12.0029C10.0019 11.4509 9.5539 11.0049 9.0029 11.0059ZM9.0078 15C7.3558 15.002 6.0098 13.66 6.0078 12.008C6.0058 10.355 7.3478 9.01 8.9998 9.008C10.6528 9.006 11.9978 10.348 11.9998 12C12.0018 13.652 10.6598 14.998 9.0078 15ZM14.9868 5.006L8.9938 5.014C5.1408 5.019 2.0078 8.159 2.0138 12.014C2.0188 15.867 5.1588 19 9.0138 18.994L15.0058 18.986C18.8598 18.981 21.9918 15.841 21.9868 11.986C21.9818 8.133 18.8408 5 14.9868 5.006Z" fill="#F0F0F0"/>
<mask id="mask0" mask-type="alpha" maskUnits="userSpaceOnUse" x="2" y="5" width="20" height="14">
<path id="Mask_2" fill-rule="evenodd" clip-rule="evenodd" d="M9.0029 11.0059C8.4509 11.0059 8.0049 11.4539 8.0059 12.0059C8.0059 12.5569 8.4539 13.0039 9.0059 13.0029C9.5569 13.0019 10.0039 12.5539 10.0029 12.0029C10.0019 11.4509 9.5539 11.0049 9.0029 11.0059ZM9.0078 15C7.3558 15.002 6.0098 13.66 6.0078 12.008C6.0058 10.355 7.3478 9.01 8.9998 9.008C10.6528 9.006 11.9978 10.348 11.9998 12C12.0018 13.652 10.6598 14.998 9.0078 15ZM14.9868 5.006L8.9938 5.014C5.1408 5.019 2.0078 8.159 2.0138 12.014C2.0188 15.867 5.1588 19 9.0138 18.994L15.0058 18.986C18.8598 18.981 21.9918 15.841 21.9868 11.986C21.9818 8.133 18.8408 5 14.9868 5.006Z" fill="white"/>
</mask>
<g mask="url(#mask0)">
<g id="&#240;&#159;&#142;&#168; Color">
<rect id="Base" width="24" height="24" fill="#F0F0F0"/>
</g>
</g>
</g>
</svg>
