<svg width="16" height="16" viewBox="0 0 16 16" fill="none" xmlns="http://www.w3.org/2000/svg">
<path fill-rule="evenodd" clip-rule="evenodd" d="M10.6667 10.6668C10.6667 11.0335 10.3667 11.3335 10 11.3335C9.63337 11.3335 9.33337 11.0335 9.33337 10.6668V8.00016C9.33337 7.6335 9.63337 7.3335 10 7.3335C10.3667 7.3335 10.6667 7.6335 10.6667 8.00016V10.6668ZM6.66671 2.8855C6.66671 2.78216 6.80937 2.66683 7.00004 2.66683H9.00004C9.19071 2.66683 9.33337 2.78216 9.33337 2.8855V4.00016H6.66671V2.8855ZM6.66671 10.6668C6.66671 11.0335 6.36671 11.3335 6.00004 11.3335C5.63337 11.3335 5.33337 11.0335 5.33337 10.6668V8.00016C5.33337 7.6335 5.63337 7.3335 6.00004 7.3335C6.36671 7.3335 6.66671 7.6335 6.66671 8.00016V10.6668ZM14 4.00016H13.3334H10.6667V2.8855C10.6667 2.0295 9.91937 1.3335 9.00004 1.3335H7.00004C6.08071 1.3335 5.33337 2.0295 5.33337 2.8855V4.00016H2.66671H2.00004C1.63337 4.00016 1.33337 4.30016 1.33337 4.66683C1.33337 5.0335 1.63337 5.3335 2.00004 5.3335H2.66671V12.6668C2.66671 13.7695 3.56404 14.6668 4.66671 14.6668H11.3334C12.436 14.6668 13.3334 13.7695 13.3334 12.6668V5.3335H14C14.3667 5.3335 14.6667 5.0335 14.6667 4.66683C14.6667 4.30016 14.3667 4.00016 14 4.00016Z" fill="#E2673E"/>
<mask id="mask0ktrash" mask-type="alpha" maskUnits="userSpaceOnUse" x="1" y="1" width="14" height="14">
<path fill-rule="evenodd" clip-rule="evenodd" d="M10.6667 10.6668C10.6667 11.0335 10.3667 11.3335 10 11.3335C9.63337 11.3335 9.33337 11.0335 9.33337 10.6668V8.00016C9.33337 7.6335 9.63337 7.3335 10 7.3335C10.3667 7.3335 10.6667 7.6335 10.6667 8.00016V10.6668ZM6.66671 2.8855C6.66671 2.78216 6.80937 2.66683 7.00004 2.66683H9.00004C9.19071 2.66683 9.33337 2.78216 9.33337 2.8855V4.00016H6.66671V2.8855ZM6.66671 10.6668C6.66671 11.0335 6.36671 11.3335 6.00004 11.3335C5.63337 11.3335 5.33337 11.0335 5.33337 10.6668V8.00016C5.33337 7.6335 5.63337 7.3335 6.00004 7.3335C6.36671 7.3335 6.66671 7.6335 6.66671 8.00016V10.6668ZM14 4.00016H13.3334H10.6667V2.8855C10.6667 2.0295 9.91937 1.3335 9.00004 1.3335H7.00004C6.08071 1.3335 5.33337 2.0295 5.33337 2.8855V4.00016H2.66671H2.00004C1.63337 4.00016 1.33337 4.30016 1.33337 4.66683C1.33337 5.0335 1.63337 5.3335 2.00004 5.3335H2.66671V12.6668C2.66671 13.7695 3.56404 14.6668 4.66671 14.6668H11.3334C12.436 14.6668 13.3334 13.7695 13.3334 12.6668V5.3335H14C14.3667 5.3335 14.6667 5.0335 14.6667 4.66683C14.6667 4.30016 14.3667 4.00016 14 4.00016Z" fill="white"/>
</mask>
<g mask="url(#mask0ktrash)">
<rect width="16" height="16" fill="#E2673E"/>
</g>
</svg>
