<svg width="24" height="24" viewBox="0 0 24 24" fill="none" xmlns="http://www.w3.org/2000/svg">
<g id="Icon/Fill/trending-up">
<path id="Mask" fill-rule="evenodd" clip-rule="evenodd" d="M20.9922 6.9629C20.9902 6.8909 20.9692 6.8229 20.9502 6.7539C20.9352 6.6959 20.9282 6.6369 20.9032 6.5839C20.8802 6.5319 20.8412 6.4899 20.8072 6.4419C20.7652 6.3809 20.7272 6.3199 20.6732 6.2699C20.6642 6.2609 20.6602 6.2489 20.6502 6.2409C20.6142 6.2099 20.5702 6.1989 20.5312 6.1739C20.4712 6.1349 20.4122 6.0949 20.3442 6.0689C20.2772 6.0449 20.2112 6.0389 20.1422 6.0289C20.0942 6.0219 20.0512 5.9999 20.0002 5.9999H15.0002C14.4472 5.9999 14.0002 6.4479 14.0002 6.9999C14.0002 7.5519 14.4472 7.9999 15.0002 7.9999H17.8262L13.7902 12.7079L9.5142 10.1429C9.0912 9.8869 8.5472 9.9809 8.2312 10.3599L3.2312 16.3599C2.8782 16.7839 2.9352 17.4149 3.3592 17.7679C3.5472 17.9239 3.7732 17.9999 3.9992 17.9999C4.2862 17.9999 4.5702 17.8779 4.7682 17.6399L9.2202 12.2979L13.4852 14.8579C13.9042 15.1089 14.4422 15.0209 14.7592 14.6509L19.0002 9.7029V11.9999C19.0002 12.5519 19.4472 12.9999 20.0002 12.9999C20.5532 12.9999 21.0002 12.5519 21.0002 11.9999V6.9999C21.0002 6.9869 20.9932 6.9759 20.9922 6.9629Z" fill="#F0F0F0"/>
<mask id="mask0" mask-type="alpha" maskUnits="userSpaceOnUse" x="2" y="6" width="20" height="12">
<path id="Mask_2" fill-rule="evenodd" clip-rule="evenodd" d="M20.9922 6.9629C20.9902 6.8909 20.9692 6.8229 20.9502 6.7539C20.9352 6.6959 20.9282 6.6369 20.9032 6.5839C20.8802 6.5319 20.8412 6.4899 20.8072 6.4419C20.7652 6.3809 20.7272 6.3199 20.6732 6.2699C20.6642 6.2609 20.6602 6.2489 20.6502 6.2409C20.6142 6.2099 20.5702 6.1989 20.5312 6.1739C20.4712 6.1349 20.4122 6.0949 20.3442 6.0689C20.2772 6.0449 20.2112 6.0389 20.1422 6.0289C20.0942 6.0219 20.0512 5.9999 20.0002 5.9999H15.0002C14.4472 5.9999 14.0002 6.4479 14.0002 6.9999C14.0002 7.5519 14.4472 7.9999 15.0002 7.9999H17.8262L13.7902 12.7079L9.5142 10.1429C9.0912 9.8869 8.5472 9.9809 8.2312 10.3599L3.2312 16.3599C2.8782 16.7839 2.9352 17.4149 3.3592 17.7679C3.5472 17.9239 3.7732 17.9999 3.9992 17.9999C4.2862 17.9999 4.5702 17.8779 4.7682 17.6399L9.2202 12.2979L13.4852 14.8579C13.9042 15.1089 14.4422 15.0209 14.7592 14.6509L19.0002 9.7029V11.9999C19.0002 12.5519 19.4472 12.9999 20.0002 12.9999C20.5532 12.9999 21.0002 12.5519 21.0002 11.9999V6.9999C21.0002 6.9869 20.9932 6.9759 20.9922 6.9629Z" fill="white"/>
</mask>
<g mask="url(#mask0)">
<g id="&#240;&#159;&#142;&#168; Color">
<rect id="Base" width="24" height="24" fill="#F0F0F0"/>
</g>
</g>
</g>
</svg>
