<svg width="24" height="24" viewBox="0 0 24 24" fill="none" xmlns="http://www.w3.org/2000/svg">
<g id="Icon/Fill/tv">
<path id="Mask" fill-rule="evenodd" clip-rule="evenodd" d="M19 18.9999C19 19.5529 18.553 19.9999 18 19.9999H6C5.447 19.9999 5 19.5529 5 18.9999V11.9999C5 11.4469 5.447 10.9999 6 10.9999H18C18.553 10.9999 19 11.4469 19 11.9999V18.9999ZM18 5.9999H14.414L16.707 3.7069C17.098 3.3159 17.098 2.6839 16.707 2.2929C16.316 1.9019 15.684 1.9019 15.293 2.2929L12 5.5859L8.707 2.2929C8.316 1.9019 7.684 1.9019 7.293 2.2929C6.902 2.6839 6.902 3.3159 7.293 3.7069L9.586 5.9999H6C4.346 5.9999 3 7.3459 3 8.9999V18.9999C3 20.6539 4.346 21.9999 6 21.9999H18C19.654 21.9999 21 20.6539 21 18.9999V8.9999C21 7.3459 19.654 5.9999 18 5.9999Z" fill="#F0F0F0"/>
<mask id="mask0" mask-type="alpha" maskUnits="userSpaceOnUse" x="3" y="1" width="18" height="21">
<path id="Mask_2" fill-rule="evenodd" clip-rule="evenodd" d="M19 18.9999C19 19.5529 18.553 19.9999 18 19.9999H6C5.447 19.9999 5 19.5529 5 18.9999V11.9999C5 11.4469 5.447 10.9999 6 10.9999H18C18.553 10.9999 19 11.4469 19 11.9999V18.9999ZM18 5.9999H14.414L16.707 3.7069C17.098 3.3159 17.098 2.6839 16.707 2.2929C16.316 1.9019 15.684 1.9019 15.293 2.2929L12 5.5859L8.707 2.2929C8.316 1.9019 7.684 1.9019 7.293 2.2929C6.902 2.6839 6.902 3.3159 7.293 3.7069L9.586 5.9999H6C4.346 5.9999 3 7.3459 3 8.9999V18.9999C3 20.6539 4.346 21.9999 6 21.9999H18C19.654 21.9999 21 20.6539 21 18.9999V8.9999C21 7.3459 19.654 5.9999 18 5.9999Z" fill="white"/>
</mask>
<g mask="url(#mask0)">
<g id="&#240;&#159;&#142;&#168; Color">
<rect id="Base" width="24" height="24" fill="#F0F0F0"/>
</g>
</g>
</g>
</svg>
