<svg width="24" height="24" viewBox="0 0 24 24" fill="none" xmlns="http://www.w3.org/2000/svg">
<g id="Icon/Fill/wifi-off">
<path id="Mask" fill-rule="evenodd" clip-rule="evenodd" d="M12.4365 11.0225L10.5445 9.13049L8.0825 6.66749L6.5315 5.11749L4.7075 3.29349C4.3165 2.90249 3.6835 2.90249 3.2925 3.29349C2.9025 3.68349 2.9025 4.31649 3.2925 4.70749L4.6685 6.08349L6.1295 7.54349L8.3635 9.77749L9.9095 11.3235L12.6485 14.0625L15.4415 16.8555L19.2925 20.7075C19.4885 20.9025 19.7445 21.0005 19.9995 21.0005C20.2555 21.0005 20.5115 20.9025 20.7075 20.7075C21.0975 20.3165 21.0975 19.6835 20.7075 19.2935L12.4365 11.0225ZM12 18C11.447 18 11 18.448 11 19C11 19.552 11.447 20 12 20C12.553 20 13 19.552 13 19C13 18.448 12.553 18 12 18ZM11.9996 4.00019C15.6476 4.00019 19.1006 5.39519 21.7246 7.92919C22.1216 8.31219 22.1326 8.94619 21.7496 9.34319C21.5536 9.54619 21.2916 9.64819 21.0306 9.64819C20.7806 9.64819 20.5296 9.55519 20.3356 9.36719C18.0856 7.19619 15.1256 6.00019 11.9996 6.00019C11.0366 6.00019 10.0916 6.12719 9.1756 6.34719L7.5606 4.73219C8.9766 4.26019 10.4686 4.00019 11.9996 4.00019ZM3.8242 6.65279C3.2852 7.04279 2.7622 7.45979 2.2752 7.92879C1.8782 8.31279 1.8672 8.94579 2.2502 9.34279C2.6342 9.74079 3.2692 9.75179 3.6642 9.36779C4.1602 8.88879 4.6962 8.46579 5.2562 8.08379L3.8242 6.65279ZM17.7552 13.4427C17.4932 13.4427 17.2312 13.3407 17.0352 13.1377C16.2432 12.3167 15.2582 11.7117 14.1862 11.3587L11.8372 9.00869C11.8623 9.00823 11.8873 9.00626 11.9125 9.00428C11.9416 9.00199 11.9707 8.99969 12.0002 8.99969C14.4282 8.99969 16.7882 10.0017 18.4742 11.7477C18.8572 12.1457 18.8472 12.7787 18.4492 13.1617C18.2562 13.3497 18.0052 13.4427 17.7552 13.4427ZM7.4316 10.2603C6.7376 10.6683 6.0906 11.1623 5.5256 11.7483C5.1426 12.1453 5.1536 12.7793 5.5506 13.1623C5.9466 13.5463 6.5806 13.5353 6.9646 13.1373C7.5266 12.5553 8.1886 12.0883 8.9056 11.7343L7.4316 10.2603ZM8.5023 16.8173C8.1193 16.4203 8.1303 15.7873 8.5273 15.4033C9.2793 14.6763 10.2263 14.2273 11.2443 14.0723L13.7613 16.5903C12.6193 15.7753 10.9413 15.8523 9.9163 16.8413C9.5203 17.2263 8.8863 17.2153 8.5023 16.8173Z" fill="#F0F0F0"/>
<mask id="mask0" mask-type="alpha" maskUnits="userSpaceOnUse" x="1" y="3" width="22" height="19">
<path id="Mask_2" fill-rule="evenodd" clip-rule="evenodd" d="M12.4365 11.0225L10.5445 9.13049L8.0825 6.66749L6.5315 5.11749L4.7075 3.29349C4.3165 2.90249 3.6835 2.90249 3.2925 3.29349C2.9025 3.68349 2.9025 4.31649 3.2925 4.70749L4.6685 6.08349L6.1295 7.54349L8.3635 9.77749L9.9095 11.3235L12.6485 14.0625L15.4415 16.8555L19.2925 20.7075C19.4885 20.9025 19.7445 21.0005 19.9995 21.0005C20.2555 21.0005 20.5115 20.9025 20.7075 20.7075C21.0975 20.3165 21.0975 19.6835 20.7075 19.2935L12.4365 11.0225ZM12 18C11.447 18 11 18.448 11 19C11 19.552 11.447 20 12 20C12.553 20 13 19.552 13 19C13 18.448 12.553 18 12 18ZM11.9996 4.00019C15.6476 4.00019 19.1006 5.39519 21.7246 7.92919C22.1216 8.31219 22.1326 8.94619 21.7496 9.34319C21.5536 9.54619 21.2916 9.64819 21.0306 9.64819C20.7806 9.64819 20.5296 9.55519 20.3356 9.36719C18.0856 7.19619 15.1256 6.00019 11.9996 6.00019C11.0366 6.00019 10.0916 6.12719 9.1756 6.34719L7.5606 4.73219C8.9766 4.26019 10.4686 4.00019 11.9996 4.00019ZM3.8242 6.65279C3.2852 7.04279 2.7622 7.45979 2.2752 7.92879C1.8782 8.31279 1.8672 8.94579 2.2502 9.34279C2.6342 9.74079 3.2692 9.75179 3.6642 9.36779C4.1602 8.88879 4.6962 8.46579 5.2562 8.08379L3.8242 6.65279ZM17.7552 13.4427C17.4932 13.4427 17.2312 13.3407 17.0352 13.1377C16.2432 12.3167 15.2582 11.7117 14.1862 11.3587L11.8372 9.00869C11.8623 9.00823 11.8873 9.00626 11.9125 9.00428C11.9416 9.00199 11.9707 8.99969 12.0002 8.99969C14.4282 8.99969 16.7882 10.0017 18.4742 11.7477C18.8572 12.1457 18.8472 12.7787 18.4492 13.1617C18.2562 13.3497 18.0052 13.4427 17.7552 13.4427ZM7.4316 10.2603C6.7376 10.6683 6.0906 11.1623 5.5256 11.7483C5.1426 12.1453 5.1536 12.7793 5.5506 13.1623C5.9466 13.5463 6.5806 13.5353 6.9646 13.1373C7.5266 12.5553 8.1886 12.0883 8.9056 11.7343L7.4316 10.2603ZM8.5023 16.8173C8.1193 16.4203 8.1303 15.7873 8.5273 15.4033C9.2793 14.6763 10.2263 14.2273 11.2443 14.0723L13.7613 16.5903C12.6193 15.7753 10.9413 15.8523 9.9163 16.8413C9.5203 17.2263 8.8863 17.2153 8.5023 16.8173Z" fill="white"/>
</mask>
<g mask="url(#mask0)">
<g id="&#240;&#159;&#142;&#168; Color">
<rect id="Base" width="24" height="24" fill="#F0F0F0"/>
</g>
</g>
</g>
</svg>
