<svg xmlns="http://www.w3.org/2000/svg" width="24" height="24" viewBox="0 0 24 24"><defs><style>.a{fill:#fff;opacity:0.6;}</style></defs><path class="a" d="M.39,0A.48.48,0,0,0,0,.48V6.24a.481.481,0,0,0,.48.48H6.24a.481.481,0,0,0,.48-.48V.48A.481.481,0,0,0,6.24,0H.39ZM.96.96h4.8v4.8H.96ZM4.92,1.6,3.075,3.66,1.755,2.52l-.63.72L2.8,4.68,3.165,5l.315-.36,2.16-2.4ZM9.6,2.895v.93H24v-.93ZM.39,8.64A.48.48,0,0,0,0,9.12v5.76a.481.481,0,0,0,.48.48H6.24a.481.481,0,0,0,.48-.48V9.12a.481.481,0,0,0-.48-.48H.39Zm.57.96h4.8v4.8H.96Zm3.96.645L3.075,12.3l-1.32-1.14-.63.72L2.8,13.32l.36.315.315-.36,2.16-2.4Zm4.68,1.29v.93H24v-.93ZM.39,17.28a.48.48,0,0,0-.39.48v5.76A.481.481,0,0,0,.48,24H6.24a.481.481,0,0,0,.48-.48V17.76a.481.481,0,0,0-.48-.48H.39Zm.57.96h4.8v4.8H.96ZM9.6,20.175v.93H24v-.93Z" transform="translate(0)"/></svg>