<svg xmlns="http://www.w3.org/2000/svg" width="24" height="24.002" viewBox="0 0 24 24.002"><defs><style>.a{fill:#fff;opacity:0.6;}</style></defs><path class="a" d="M12.544,2a.522.522,0,0,0-.515.437l-.508,3.107a8.751,8.751,0,0,0-1.741.715L7.217,4.429a.522.522,0,0,0-.672.055L4.515,6.512a.522.522,0,0,0-.058.669l1.8,2.58a8.828,8.828,0,0,0-.73,1.753l-3.094.515A.522.522,0,0,0,2,12.543v2.87a.522.522,0,0,0,.43.515l3.1.548a8.777,8.777,0,0,0,.728,1.753L4.429,20.783a.522.522,0,0,0,.055.672l2.029,2.03a.522.522,0,0,0,.668.059l2.585-1.81a8.793,8.793,0,0,0,1.746.721l.517,3.111a.522.522,0,0,0,.515.436h2.87a.522.522,0,0,0,.515-.431l.553-3.124a8.792,8.792,0,0,0,1.738-.729l2.6,1.826a.522.522,0,0,0,.669-.058l2.029-2.031a.522.522,0,0,0,.054-.674l-1.856-2.576a8.749,8.749,0,0,0,.713-1.727l3.14-.55A.522.522,0,0,0,26,15.413v-2.87a.522.522,0,0,0-.437-.515l-3.135-.513a8.809,8.809,0,0,0-.715-1.725l1.83-2.608a.522.522,0,0,0-.058-.669l-2.03-2.029a.522.522,0,0,0-.674-.054L18.214,6.279a8.745,8.745,0,0,0-1.74-.725l-.546-3.123A.522.522,0,0,0,15.413,2Zm.444,1.044h1.987l.52,2.967a.522.522,0,0,0,.387.417,7.721,7.721,0,0,1,2.134.888.522.522,0,0,0,.575-.022l2.442-1.755,1.405,1.405L20.7,9.42a.522.522,0,0,0-.02.569,7.789,7.789,0,0,1,.879,2.124.522.522,0,0,0,.422.388l2.978.487v1.987l-2.984.524a.522.522,0,0,0-.416.389,7.722,7.722,0,0,1-.877,2.123.522.522,0,0,0,.023.574l1.763,2.447-1.405,1.406L18.589,20.7a.522.522,0,0,0-.571-.018,7.772,7.772,0,0,1-2.129.892.522.522,0,0,0-.386.415l-.527,2.968h-1.99L12.495,22a.522.522,0,0,0-.389-.421A7.775,7.775,0,0,1,9.963,20.7a.522.522,0,0,0-.568.02L6.942,22.438,5.535,21.03,7.27,18.605a.522.522,0,0,0,.021-.574A7.754,7.754,0,0,1,6.4,15.884a.522.522,0,0,0-.415-.387l-2.938-.522v-1.99L5.982,12.5a.522.522,0,0,0,.421-.388A7.8,7.8,0,0,1,7.3,9.96a.522.522,0,0,0-.018-.57L5.563,6.941,6.97,5.534,9.4,7.273a.522.522,0,0,0,.572.022,7.738,7.738,0,0,1,2.141-.879.522.522,0,0,0,.39-.423ZM14,9.827A4.174,4.174,0,1,0,18.176,14,4.182,4.182,0,0,0,14,9.827Zm0,1.044A3.131,3.131,0,1,1,10.871,14,3.123,3.123,0,0,1,14,10.87Z" transform="translate(-2.002 -2)"/></svg>